<svg width="145" height="35" viewBox="0 0 145 35" fill="none" xmlns="http://www.w3.org/2000/svg">
<path d="M13.5456 27.0193H19.3131C19.9262 26.9452 20.4934 26.6566 20.9141 26.2045C21.3349 25.7524 21.5821 25.1661 21.612 24.5492V16.229C21.612 15.6986 21.4013 15.1898 21.0262 14.8148C20.6511 14.4397 20.1424 14.2289 19.6119 14.2289C19.0815 14.2289 18.5727 14.4397 18.1977 14.8148C17.8226 15.1898 17.6118 15.6986 17.6118 16.229V21.516C17.6118 21.9143 17.4536 22.2962 17.172 22.5778C16.8904 22.8594 16.5085 23.0176 16.1103 23.0176H13.496C13.2312 23.0178 12.9691 23.0705 12.7248 23.1728C12.4806 23.2751 12.259 23.4249 12.0731 23.6135C11.8872 23.8021 11.7406 24.0257 11.6417 24.2714C11.5429 24.5171 11.4939 24.7799 11.4975 25.0447C11.5124 25.5765 11.7353 26.0811 12.1182 26.4503C12.5012 26.8195 13.0137 27.0238 13.5456 27.0193ZM16.1463 8.02448H10.3773C9.76418 8.09855 9.19705 8.38718 8.7763 8.83926C8.35555 9.29133 8.10833 9.8777 8.0784 10.4946V18.8132C8.0784 19.3437 8.28912 19.8524 8.66421 20.2275C9.0393 20.6026 9.54803 20.8133 10.0785 20.8133C10.6089 20.8133 11.1177 20.6026 11.4928 20.2275C11.8678 19.8524 12.0786 19.3437 12.0786 18.8132V13.5277C12.0786 13.1295 12.2368 12.7475 12.5184 12.4659C12.8 12.1843 13.1819 12.0261 13.5801 12.0261H16.1929C16.4577 12.026 16.7198 11.9732 16.9641 11.8709C17.2084 11.7686 17.4299 11.6189 17.6158 11.4303C17.8017 11.2417 17.9484 11.0181 18.0472 10.7724C18.146 10.5267 18.195 10.2638 18.1914 9.99903C18.1769 9.46769 17.9546 8.96324 17.5722 8.59404C17.1898 8.22484 16.6778 8.02035 16.1463 8.02448Z" fill="white"/>
<path d="M17.1179 4.00017C19.3713 4.00256 21.5318 4.89869 23.1254 6.49197C24.7189 8.08526 25.6154 10.2456 25.6182 12.499V28.8451C25.5233 29.3968 25.2541 29.9036 24.8501 30.2911C24.4461 30.6786 23.9286 30.9265 23.3734 30.9983H12.5035C10.2483 30.9983 8.08544 30.1024 6.49075 28.5077C4.89606 26.9131 4.00017 24.7502 4.00017 22.495V6.62942C4.00017 5.9321 4.27718 5.26334 4.77026 4.77026C5.26334 4.27718 5.9321 4.00017 6.62941 4.00017H17.1179ZM17.1179 1.44325e-06H6.62941C4.87118 1.44325e-06 3.18497 0.698455 1.94171 1.94171C0.698454 3.18497 0 4.87119 0 6.62942L0 22.4965C0 25.8126 1.31733 28.9929 3.6622 31.3378C6.00707 33.6827 9.18739 35 12.5035 35H23.5746C25.1107 34.8741 26.555 34.2168 27.6589 33.1412C28.7628 32.0655 29.4573 30.6387 29.6229 29.1064V12.499C29.6229 10.8571 29.2994 9.23132 28.6709 7.71448C28.0424 6.19763 27.1212 4.81948 25.9599 3.65876C24.7986 2.49804 23.42 1.57749 21.9029 0.949709C20.3857 0.321927 18.7598 -0.000787553 17.1179 1.44325e-06ZM44.9569 27.2489C43.5755 27.2411 42.2172 26.8935 41.0018 26.2369C39.7539 25.5803 38.6724 24.6477 37.8395 23.51C37.7373 23.3723 37.6906 23.2013 37.7086 23.0307C37.7267 22.8602 37.8083 22.7027 37.9371 22.5896L39.4551 21.2457C39.5795 21.1355 39.7395 21.0741 39.9056 21.073C39.9381 21.0707 39.9707 21.0707 40.0032 21.073C40.1014 21.087 40.1953 21.1222 40.2785 21.1762C40.3618 21.2301 40.4323 21.3014 40.4852 21.3853C41.0009 22.2184 41.707 22.9173 42.5454 23.4244C43.3477 23.9099 44.2683 24.165 45.2061 24.1617C46.2107 24.1617 46.966 23.953 47.4495 23.5416C47.9 23.1511 48.1282 22.6271 48.1282 21.9349C48.1282 21.1691 47.8909 20.6075 47.4044 20.2186C46.8248 19.7576 45.8578 19.3357 44.5304 18.9648C40.6264 18.0038 38.6458 16.1403 38.6458 13.4225C38.6458 11.7392 39.2149 10.4194 40.3381 9.48389C41.4222 8.58295 42.9178 8.13248 44.7827 8.13248C46.0373 8.11471 47.2802 8.37468 48.4225 8.89378C49.5502 9.44204 50.539 10.2388 51.3145 11.2242C51.4261 11.3641 51.4791 11.5418 51.4623 11.7199C51.4455 11.898 51.3602 12.0627 51.2244 12.1792L49.7559 13.424C49.6841 13.4847 49.6006 13.53 49.5106 13.557C49.4206 13.5841 49.326 13.5924 49.2327 13.5815C49.1394 13.5705 49.0493 13.5404 48.968 13.4932C48.8868 13.446 48.8161 13.3826 48.7603 13.3069C48.3032 12.6499 47.7083 12.1006 47.017 11.6972C46.3258 11.3461 45.5576 11.1742 44.7827 11.1972C43.8923 11.1972 43.167 11.3984 42.6265 11.7978C42.3952 11.9607 42.2083 12.1789 42.083 12.4325C41.9576 12.6862 41.8977 12.9671 41.9087 13.2498C41.9087 13.903 42.1294 14.4015 42.5799 14.7739C43.11 15.2109 44.0635 15.5953 45.4149 15.9181C47.2498 16.4121 48.6928 17.1043 49.7198 17.9797C50.8295 18.9257 51.3926 20.2576 51.3926 21.9364C51.4086 22.9283 51.1255 23.9021 50.5802 24.7308C50.0107 25.563 49.2144 26.2144 48.2859 26.6077C47.2337 27.0534 46.0993 27.2719 44.9569 27.2489ZM59.5176 27.318C58.3373 27.336 57.1749 27.0279 56.1586 26.4276C55.1716 25.8298 54.3693 24.9708 53.8401 23.9455C53.2809 22.8532 52.9974 21.6408 53.0143 20.4138C52.9965 19.1902 53.2752 17.9805 53.8266 16.8881C54.3479 15.8595 55.1475 14.9979 56.1345 14.4015C57.1435 13.7982 58.3 13.4863 59.4755 13.5006C60.4605 13.4809 61.4331 13.7228 62.294 14.2018C63.1178 14.6937 63.8387 15.3402 64.4172 16.1058C64.528 16.2497 64.5776 16.4315 64.5551 16.6118C64.5326 16.792 64.4399 16.9561 64.2971 17.0683L63.0523 18.0383C62.9325 18.1345 62.7839 18.1874 62.6303 18.1885C62.5958 18.1907 62.5612 18.1907 62.5267 18.1885C62.4343 18.1742 62.3458 18.1413 62.2666 18.0917C62.1873 18.0421 62.119 17.977 62.0657 17.9002C61.3825 16.9091 60.5341 16.4286 59.4695 16.4286C58.8563 16.4179 58.2536 16.5882 57.7367 16.9181C57.2117 17.2599 56.7926 17.7415 56.5264 18.3086C56.2275 18.9731 56.073 19.6934 56.073 20.4221C56.073 21.1507 56.2275 21.871 56.5264 22.5355C56.7903 23.1041 57.21 23.5862 57.7367 23.926C58.2528 24.2503 58.8526 24.4163 59.462 24.4035C60.1407 24.4035 60.6948 24.2923 61.1062 24.0731C61.5655 23.8178 61.966 23.4689 62.2819 23.049C62.3901 22.911 62.547 22.8197 62.7204 22.7937C62.8938 22.7677 63.0706 22.8091 63.2144 22.9094L64.5343 23.8299C64.6115 23.8836 64.6768 23.9527 64.7261 24.0328C64.7754 24.1129 64.8077 24.2023 64.821 24.2954C64.8342 24.3885 64.8281 24.4834 64.8031 24.574C64.778 24.6647 64.7346 24.7493 64.6754 24.8224C64.0631 25.5809 63.295 26.1989 62.4231 26.6348C61.5221 27.0886 60.5264 27.3227 59.5176 27.318ZM72.1562 27.318C70.9802 27.3322 69.8233 27.0204 68.8138 26.417C67.8266 25.8201 67.0245 24.9608 66.4968 23.935C65.9348 22.8351 65.6512 21.6142 65.671 20.3793C65.6524 19.1587 65.9307 17.9518 66.4818 16.8626C67.0044 15.8465 67.7966 14.994 68.7717 14.3985C69.7766 13.7945 70.9299 13.4825 72.1022 13.4976C73.0244 13.4891 73.9343 13.7088 74.751 14.1372C75.0232 14.2816 75.2833 14.4479 75.5288 14.6343V14.5862C75.5292 14.4043 75.6016 14.23 75.7302 14.1014C75.8588 13.9728 76.0331 13.9004 76.215 13.9H77.9072C78.0891 13.9004 78.2634 13.9728 78.392 14.1014C78.5206 14.23 78.5931 14.4043 78.5935 14.5862V26.2339C78.5931 26.4157 78.5206 26.59 78.392 26.7186C78.2634 26.8473 78.0891 26.9197 77.9072 26.9201H76.2135C76.0316 26.9197 75.8573 26.8473 75.7287 26.7186C75.6001 26.59 75.5277 26.4157 75.5273 26.2339V26.1918C75.2876 26.3731 75.034 26.5352 74.769 26.6768C73.9652 27.1052 73.067 27.3256 72.1562 27.318ZM72.1067 16.4166C71.4984 16.4043 70.9003 16.5737 70.3889 16.9031C69.8701 17.2468 69.4548 17.7255 69.1877 18.2876C68.8774 18.9442 68.7232 19.6637 68.7372 20.3898C68.7224 21.1275 68.8765 21.8589 69.1877 22.528C69.4506 23.0952 69.8666 23.5778 70.3889 23.9214C70.8999 24.2507 71.4974 24.4201 72.1052 24.408C72.7271 24.421 73.3392 24.2508 73.865 23.9184C74.3933 23.5776 74.814 23.0939 75.0783 22.5235C75.3772 21.859 75.5318 21.1387 75.5318 20.41C75.5318 19.6814 75.3772 18.9611 75.0783 18.2966C74.8118 17.7302 74.3934 17.2488 73.8695 16.9061C73.3428 16.5732 72.7297 16.4029 72.1067 16.4166Z" fill="white"/>
<path d="M83.1687 8.13086H81.4765C81.0975 8.13086 80.7903 8.43809 80.7903 8.81707V26.1737C80.7903 26.5527 81.0975 26.8599 81.4765 26.8599H83.1687C83.5477 26.8599 83.855 26.5527 83.855 26.1737V8.81707C83.855 8.43809 83.5477 8.13086 83.1687 8.13086Z" fill="white"/>
<path d="M111.033 26.9201C110.888 26.9207 110.746 26.8747 110.628 26.7887C110.511 26.7028 110.424 26.5815 110.38 26.4426L108.171 19.4874L105.784 26.4561C105.737 26.5915 105.65 26.709 105.533 26.7922C105.416 26.8754 105.277 26.9201 105.134 26.9201H103.441C103.297 26.9201 103.156 26.8745 103.039 26.7899C102.922 26.7052 102.835 26.5858 102.79 26.4486L98.9532 14.801C98.9044 14.6524 98.9075 14.4917 98.9621 14.3452C99.0166 14.1987 99.1194 14.075 99.2535 13.9946C99.3654 13.9305 99.4925 13.8978 99.6214 13.9H101.401C101.546 13.8996 101.688 13.9455 101.805 14.0311C101.923 14.1167 102.01 14.2375 102.054 14.376L104.393 21.6226L106.772 14.367C106.817 14.2297 106.904 14.1102 107.021 14.0255C107.138 13.9408 107.279 13.8953 107.424 13.8955H109.066C109.212 13.8951 109.354 13.9412 109.472 14.027C109.59 14.1129 109.677 14.2341 109.721 14.373L112.006 21.5415L114.313 14.3715C114.357 14.233 114.444 14.1122 114.561 14.0266C114.679 13.941 114.821 13.8951 114.966 13.8955H116.571C116.663 13.8941 116.754 13.9104 116.84 13.9436C117.001 14.0091 117.131 14.1331 117.205 14.2907C117.278 14.4483 117.29 14.6279 117.236 14.7935L113.452 26.4426C113.408 26.5802 113.32 26.7001 113.203 26.785C113.086 26.87 112.945 26.9157 112.801 26.9156L111.033 26.9201ZM124.136 27.3195C122.96 27.3338 121.803 27.0219 120.793 26.4186C119.806 25.8227 119.003 24.9652 118.474 23.941C117.913 22.8407 117.63 21.62 117.649 20.3853C117.631 19.1652 117.909 17.9588 118.46 16.8701C118.982 15.8507 119.776 14.9954 120.753 14.3986C121.758 13.7942 122.912 13.4822 124.085 13.4976C125.007 13.4909 125.916 13.7121 126.732 14.1418C127.003 14.2849 127.261 14.4496 127.505 14.6343V14.5862C127.506 14.4044 127.578 14.2301 127.707 14.1015C127.835 13.9729 128.01 13.9004 128.192 13.9H129.885C130.067 13.9004 130.242 13.9729 130.37 14.1015C130.499 14.2301 130.571 14.4044 130.572 14.5862V26.2339C130.571 26.4158 130.499 26.5901 130.37 26.7187C130.242 26.8473 130.067 26.9197 129.885 26.9201H128.193C128.011 26.9197 127.837 26.8473 127.708 26.7187C127.58 26.5901 127.507 26.4158 127.507 26.2339V26.1918C127.27 26.3728 127.019 26.5349 126.756 26.6769C125.95 27.1069 125.049 27.3279 124.136 27.3195ZM124.086 16.4167C123.478 16.4043 122.88 16.5737 122.369 16.9032C121.85 17.2469 121.435 17.7255 121.167 18.2876C120.857 18.9442 120.703 19.6637 120.717 20.3898C120.702 21.1276 120.856 21.8589 121.167 22.528C121.43 23.0956 121.846 23.5783 122.369 23.9215C122.88 24.251 123.478 24.4204 124.086 24.408C124.708 24.4217 125.32 24.2514 125.845 23.9185C126.368 23.5771 126.784 23.0952 127.046 22.528C127.345 21.8635 127.499 21.1432 127.499 20.4146C127.499 19.686 127.345 18.9656 127.046 18.3011C126.782 17.7356 126.366 17.2544 125.845 16.9107C125.32 16.577 124.708 16.4052 124.086 16.4167ZM96.381 22.8058C96.2259 22.6978 96.0361 22.6515 95.8487 22.676C95.6613 22.7004 95.4897 22.7938 95.3675 22.938C95.0594 23.3291 94.6879 23.6656 94.2683 23.9335C93.7172 24.2413 93.001 24.4035 92.1316 24.4035C91.106 24.4035 90.3297 24.0686 89.7426 23.3779C89.2725 22.8244 88.9553 22.1577 88.8221 21.4439H97.6318C97.8023 21.4443 97.9667 21.3812 98.0931 21.2667C98.2194 21.1523 98.2986 20.9949 98.315 20.8253C98.333 20.6361 98.3421 20.3748 98.3421 20.0369C98.3559 18.8856 98.0791 17.7494 97.5372 16.7335C97.0167 15.7598 96.244 14.944 95.2999 14.3715C94.3368 13.7903 93.2309 13.4887 92.1061 13.5006C90.9332 13.4852 89.7793 13.7972 88.7741 14.4016C87.794 15.0012 87.0001 15.8616 86.4812 16.8866C85.931 17.98 85.6528 19.19 85.6703 20.4138C85.6531 21.6403 85.9367 22.8524 86.4962 23.944C87.0242 24.9705 87.8268 25.8303 88.8146 26.4276C89.832 27.0331 90.9973 27.345 92.1811 27.3285C93.519 27.3285 94.7083 27.0673 95.6948 26.5117C96.4943 26.0672 97.1963 25.4667 97.7594 24.7458C97.823 24.665 97.8693 24.572 97.8955 24.4725C97.9216 24.373 97.927 24.2693 97.9114 24.1676C97.8958 24.066 97.8594 23.9686 97.8046 23.8816C97.7498 23.7946 97.6777 23.7197 97.5928 23.6617L96.381 22.8058ZM89.9408 17.25C90.5009 16.6899 91.2081 16.4182 92.1061 16.4182C93.046 16.4182 93.7578 16.6554 94.2758 17.1419C94.6969 17.5663 94.9921 18.099 95.1287 18.681H89.0338C89.2258 18.1413 89.5368 17.6517 89.9438 17.2485L89.9408 17.25ZM144.341 14.1958C144.278 14.1038 144.194 14.0284 144.096 13.9761C143.997 13.9238 143.888 13.8961 143.776 13.8955H142.183C142.045 13.8963 141.91 13.9387 141.796 14.0171C141.682 14.0956 141.594 14.2065 141.544 14.3355L138.255 22.8404L135.127 14.3295C135.077 14.2017 134.99 14.092 134.876 14.0148C134.762 13.9376 134.628 13.8966 134.491 13.897H132.723C132.611 13.8977 132.501 13.9257 132.402 13.9786C132.303 14.0315 132.219 14.1077 132.156 14.2006C132.094 14.2935 132.054 14.4003 132.042 14.5117C132.03 14.6231 132.045 14.7358 132.087 14.84L136.679 26.9291C136.543 27.4667 136.322 27.8371 136.013 28.0403C135.582 28.3271 134.77 28.3661 134.323 28.3946C134.134 28.4075 133.958 28.4908 133.828 28.628C133.698 28.7652 133.625 28.9462 133.623 29.1349V30.3001C133.623 30.3984 133.642 30.4958 133.68 30.5866C133.717 30.6773 133.773 30.7597 133.843 30.8288C133.913 30.898 133.996 30.9526 134.087 30.9894C134.178 31.0262 134.275 31.0446 134.374 31.0434C135.091 31.0434 136.242 31.1125 137.137 30.638C138.985 29.662 139.261 28.4517 139.781 27.0763L144.419 14.828C144.458 14.7242 144.471 14.6124 144.458 14.5023C144.444 14.3922 144.404 14.2871 144.341 14.1958Z" fill="white"/>
</svg>
