<svg width="152" height="38" viewBox="0 0 152 38" fill="none" xmlns="http://www.w3.org/2000/svg">
<path d="M46.6087 22.6368H42.2299C42.346 25.0964 43.1289 26.9411 44.6367 28.1709C46.1446 29.4006 48.2905 29.9862 51.1323 29.9862C52.4662 29.9862 53.6551 29.8398 54.6701 29.5177C55.656 29.1956 56.4969 28.7565 57.1639 28.1709C57.8309 27.5853 58.3238 26.9117 58.6718 26.1505C59.0198 25.3892 59.1937 24.54 59.1937 23.6031C59.1937 21.7291 58.6718 20.2651 57.6279 19.2696C56.5839 18.2741 54.931 17.542 52.6982 17.0735L49.8564 16.5173C48.8125 16.3123 48.0585 16.0194 47.6235 15.6095C47.1885 15.2289 46.9856 14.6433 46.9856 13.8527C46.9856 13.56 47.0435 13.2964 47.1596 13.0036C47.2756 12.74 47.4785 12.5058 47.7685 12.3008C48.0585 12.0959 48.4355 11.9202 48.8994 11.8031C49.3634 11.6859 49.9724 11.5981 50.7264 11.5981C51.9442 11.5981 52.8721 11.8616 53.4812 12.3594C54.0901 12.8864 54.4961 13.7063 54.728 14.8482L58.8168 14.3212C58.7007 13.5013 58.4978 12.7108 58.2078 11.9495C57.9178 11.1882 57.4539 10.544 56.845 9.95839C56.207 9.37278 55.395 8.90429 54.4091 8.55293C53.3941 8.20156 52.1473 8.02588 50.6394 8.02588C49.4505 8.02588 48.3775 8.17228 47.3916 8.43581C46.4056 8.69933 45.5357 9.07998 44.8398 9.57774C44.1438 10.1048 43.5928 10.7197 43.1869 11.481C42.7808 12.2423 42.6069 13.1207 42.6069 14.1162C42.6069 15.1117 42.7519 15.9902 43.0419 16.6928C43.3319 17.425 43.7378 18.0398 44.2888 18.5376C44.8398 19.0353 45.5357 19.4452 46.3476 19.7381C47.1596 20.0602 48.0875 20.3237 49.1605 20.4993L51.8573 20.9971C52.9302 21.2314 53.6841 21.5827 54.0901 22.0512C54.4961 22.5197 54.6991 23.0467 54.6991 23.5737C54.6991 23.9838 54.6121 24.3351 54.4961 24.6572C54.3801 25.0085 54.1771 25.3014 53.8871 25.5355C53.5971 25.7698 53.2202 25.9748 52.7562 26.1212C52.2923 26.2677 51.7123 26.3261 51.0453 26.3261C49.6244 26.3261 48.5515 26.0334 47.8265 25.4477C47.1016 24.8621 46.6956 23.9252 46.6087 22.6368Z" fill="white"/>
<path d="M74.3461 23.9249H70.2284C70.1414 24.8033 69.8804 25.4768 69.4454 25.9453C68.9815 26.4138 68.3725 26.6479 67.5606 26.6479C66.9227 26.6479 66.4297 26.5309 66.0237 26.2674C65.6177 26.0039 65.2988 25.6524 65.0668 25.184C64.8348 24.7447 64.6607 24.2177 64.5738 23.6321C64.4578 23.0464 64.4288 22.4316 64.4288 21.7874C64.4288 21.1726 64.4578 20.587 64.5738 20.0013C64.6607 19.4157 64.8348 18.9179 65.0668 18.4494C65.2988 18.0102 65.6468 17.6589 66.0527 17.3953C66.4586 17.1318 66.9516 16.9855 67.5896 16.9855C68.4306 16.9855 69.0395 17.249 69.3875 17.7174C69.7354 18.1859 69.9384 18.8301 70.0543 19.5914L74.1431 19.035C74.0272 18.2738 73.8531 17.5417 73.5631 16.8975C73.2732 16.2535 72.8672 15.6679 72.3452 15.1994C71.8233 14.7308 71.1563 14.3795 70.4024 14.1159C69.6484 13.8524 68.7495 13.7061 67.7345 13.7061C66.5166 13.7061 65.4727 13.911 64.5448 14.2917C63.6168 14.7016 62.8339 15.2578 62.1959 15.9606C61.558 16.6634 61.065 17.5417 60.7171 18.5374C60.3691 19.5329 60.2241 20.6455 60.2241 21.846C60.2241 23.0758 60.3691 24.1591 60.6591 25.1547C60.9491 26.1502 61.3839 26.9994 61.9639 27.702C62.5439 28.4048 63.3268 28.9612 64.2548 29.3419C65.1827 29.7517 66.2847 29.9273 67.5606 29.9273C69.7354 29.9273 71.3593 29.4003 72.4613 28.317C73.5631 27.2336 74.1722 25.7696 74.3461 23.9249Z" fill="white"/>
<path d="M85.0852 27.5264V29.4589H88.9129V19.7964C88.9129 18.8593 88.7969 18.0395 88.5649 17.2782C88.3329 16.517 87.9849 15.8728 87.492 15.3458C86.999 14.8187 86.3611 14.438 85.5491 14.1452C84.7372 13.8524 83.7513 13.7061 82.5913 13.7061C80.6775 13.7061 79.1695 14.0867 78.0677 14.7894C76.9368 15.4921 76.2407 16.6634 75.9798 18.2445L79.6915 18.5958C79.9234 17.3661 80.8225 16.7512 82.4463 16.7512C83.1423 16.7512 83.7222 16.9269 84.2442 17.2782C84.7661 17.6296 85.0272 18.2738 85.0272 19.2108V19.972L83.0843 20.0599C82.0984 20.1185 81.1414 20.2063 80.2134 20.3527C79.2855 20.5284 78.4446 20.7919 77.6907 21.1432C76.9368 21.5239 76.3277 22.0509 75.8638 22.6951C75.3998 23.3685 75.1678 24.2177 75.1678 25.2718C75.1678 26.0917 75.2838 26.7651 75.5738 27.3507C75.8348 27.9363 76.1827 28.4048 76.6468 28.7562C77.1107 29.1368 77.6327 29.4003 78.2416 29.576C78.8506 29.7517 79.4886 29.8395 80.1845 29.8395C81.3445 29.8395 82.3013 29.6346 83.0552 29.1953C83.8092 28.7855 84.4761 28.2292 85.0852 27.5264ZM84.9981 22.6365V23.4271C84.9981 24.0713 84.8822 24.5983 84.6502 25.0082C84.4182 25.4183 84.0992 25.7696 83.7513 26.0331C83.0843 26.5309 82.2434 26.7651 81.1995 26.7651C80.5615 26.7651 80.0975 26.6187 79.7495 26.3258C79.4016 26.0331 79.2275 25.6524 79.2275 25.1254C79.2275 24.8033 79.2566 24.5105 79.3725 24.2177C79.4595 23.9542 79.6336 23.72 79.9234 23.515C80.2134 23.31 80.6195 23.1344 81.1414 22.988C81.6634 22.8708 82.3304 22.7829 83.2002 22.7243L84.9981 22.6365Z" fill="white"/>
<path d="M91.2202 8.55298V29.4592H95.2798V8.55298H91.2202Z" fill="white"/>
<path d="M97.7625 14.1748V29.4592H101.822V14.1748H97.7625ZM97.7045 8.55298V12.2423H101.88V8.55298H97.7045Z" fill="white"/>
<path d="M104.276 14.1745V29.4589H108.336V20.2649C108.336 19.8256 108.423 19.4157 108.597 19.035C108.771 18.6544 109.003 18.3323 109.293 18.0395C109.612 17.7467 109.96 17.5417 110.337 17.3661C110.714 17.2196 111.178 17.1318 111.7 17.1318C112.367 17.1318 112.918 17.3368 113.324 17.7174C113.729 18.1273 113.933 18.8593 113.933 19.9135V29.4589H117.992V19.3571C117.992 17.4247 117.557 15.9899 116.745 15.0822C115.904 14.1745 114.628 13.7061 112.918 13.7061C112.019 13.7061 111.149 13.911 110.337 14.3209C109.525 14.7308 108.8 15.4043 108.22 16.2827V14.1745H104.276Z" fill="white"/>
<path d="M124.511 30.4252H120.393C120.48 31.2743 120.683 32.0063 120.973 32.6505C121.263 33.2947 121.698 33.8217 122.278 34.2316C122.829 34.6415 123.525 34.9636 124.395 35.1687C125.265 35.3736 126.309 35.4614 127.526 35.4614C128.831 35.4614 129.933 35.2857 130.861 34.9344C131.789 34.5831 132.514 34.0267 133.094 33.3239C133.674 32.6213 134.08 31.7721 134.341 30.7765C134.602 29.781 134.747 28.6097 134.747 27.3215V14.1745H130.803V15.902C130.165 15.0822 129.44 14.4966 128.686 14.1745C127.932 13.8816 127.149 13.7061 126.337 13.7061C125.294 13.7061 124.366 13.911 123.554 14.2917C122.742 14.6723 122.046 15.1994 121.495 15.8728C120.915 16.5462 120.48 17.3368 120.19 18.2738C119.9 19.2108 119.755 20.2355 119.755 21.3482C119.755 23.6906 120.277 25.5646 121.321 26.9408C122.365 28.3462 123.96 29.0198 126.106 29.0198C127.091 29.0198 127.961 28.844 128.744 28.4634C129.527 28.0827 130.165 27.5264 130.687 26.7651V27.2336C130.687 27.8777 130.658 28.5219 130.6 29.1076C130.542 29.7224 130.426 30.2494 130.223 30.718C130.02 31.1865 129.701 31.5672 129.295 31.8599C128.86 32.1527 128.28 32.2698 127.526 32.2698C127.033 32.2698 126.627 32.2698 126.279 32.2112C125.932 32.1527 125.642 32.0649 125.41 31.9185C125.178 31.8013 124.975 31.5964 124.83 31.3621C124.685 31.1279 124.569 30.835 124.511 30.4252ZM130.716 21.2897V21.6996C130.716 22.4608 130.629 23.0758 130.455 23.6028C130.281 24.1299 130.02 24.5398 129.73 24.8619C129.411 25.184 129.034 25.4183 128.599 25.5646C128.164 25.711 127.7 25.7696 127.207 25.7696C126.279 25.7696 125.526 25.4475 124.917 24.7741C124.308 24.1005 124.018 22.9586 124.018 21.3189C124.018 20.5576 124.105 19.9135 124.279 19.3571C124.453 18.8301 124.685 18.3616 124.975 18.0102C125.265 17.6589 125.612 17.4247 126.019 17.249C126.424 17.1026 126.831 17.0147 127.294 17.0147C127.7 17.0147 128.106 17.0733 128.512 17.1612C128.918 17.2782 129.266 17.4831 129.614 17.776C129.933 18.0688 130.194 18.508 130.397 19.0644C130.6 19.65 130.716 20.382 130.716 21.2897Z" fill="white"/>
<path d="M144.318 29.9273C145.478 29.9273 146.522 29.7517 147.478 29.3711C148.407 29.0198 149.219 28.4634 149.886 27.7606C150.552 27.058 151.075 26.2088 151.422 25.2132C151.77 24.2177 151.973 23.0758 151.973 21.7874C151.973 20.5576 151.799 19.4157 151.451 18.4202C151.104 17.4247 150.581 16.5756 149.914 15.8728C149.248 15.17 148.436 14.643 147.508 14.2623C146.551 13.911 145.478 13.7061 144.318 13.7061C143.158 13.7061 142.086 13.911 141.157 14.2623C140.201 14.643 139.389 15.17 138.722 15.8728C138.054 16.5756 137.533 17.4247 137.184 18.4202C136.836 19.4157 136.663 20.5576 136.663 21.7874C136.663 24.4226 137.33 26.4138 138.663 27.8192C139.998 29.2247 141.883 29.9273 144.318 29.9273ZM144.318 26.6479C143.13 26.6479 142.26 26.238 141.708 25.4183C141.128 24.5983 140.867 23.3685 140.867 21.7874C140.867 20.2355 141.128 19.035 141.708 18.2153C142.289 17.3953 143.158 16.9855 144.318 16.9855C145.478 16.9855 146.319 17.3953 146.899 18.2153C147.478 19.035 147.769 20.2355 147.769 21.7874C147.769 23.3685 147.478 24.5691 146.899 25.3889C146.319 26.238 145.478 26.6479 144.318 26.6479Z" fill="white"/>
<path d="M9.06921 2.33556C10.3205 0.174813 13.1248 -0.631811 15.3328 0.533919C17.5408 1.69964 18.3166 4.39629 17.0652 6.55704L8.59419 21.1856C7.34295 23.3463 4.53863 24.1529 2.33057 22.9872C0.12251 21.8216 -0.653141 19.1249 0.598103 16.9641L9.06921 2.33556Z" fill="#22D1EE"/>
<path d="M15.5069 16.8144C16.7583 14.6536 19.5625 13.8469 21.7705 15.0127C23.9787 16.1784 24.7543 18.8751 23.5031 21.0358L15.0319 35.6644C13.7806 37.8251 10.9763 38.6318 8.7683 37.466C6.56024 36.3003 5.78459 33.6037 7.03583 31.4429L15.5069 16.8144Z" fill="#183BEE"/>
</svg>
