<svg version="1.0" xmlns="http://www.w3.org/2000/svg" viewBox="0 0 477.3 132.7" style="enable-background:new 0 0 477.3 132.7" xml:space="preserve">
  <path d="M97.6 93.8v5c-10.4.3-17.7.7-24.3 1.3C70.5 94.8 71 87.4 71 79V48c0-10.2-3.5-13-10.7-13-6.6 0-14.2 3.8-20 6.8-.7 13.2-.3 28.2.2 43.1.8 5.4 3.1 7.8 9.6 9.4v4.9c-3.1-.3-12.7-.5-17.5-.5-5.6 0-14.7.2-17.8.5v-4.9c6.1-1.7 8.7-3.8 9.6-8.7.5-14.8.5-29.9-.3-44.9-.7-4-2.8-6.6-7.6-6.6h-3.8l-.8-4.5L36 21.7c1.5 2.5 3.8 7.3 4.5 13.9 11.7-8.6 21.9-13.2 28-13.2 13.2 0 18.1 7.6 18.1 19.8v33.3c.1 11.5 1.2 17.1 11 18.3zm36.8 6.9c-21.9 0-31.7-15.5-32.5-33.5-1.2-24.6 17.2-44.9 40.3-44.9 22.4 0 32.5 14.5 33.3 33.7 1.1 24.9-16.2 44.7-41.1 44.7zm-18-42.7c1 20.6 11.1 33 25.2 33 11.7 0 19.8-9.7 19.1-26.1-.8-18.8-10.9-33-25.6-33-12.1 0-19.4 11.9-18.7 26.1zm131.1 26.4 2.8 5c-6.6 5.6-16.7 11.4-29 11.4-27.7 0-37.1-21.3-37.3-37.1-.2-23.1 17-41.2 37.8-41.2 17.2 0 28.9 14 30 32.8l-51.6 10.6c3.1 13.2 12.5 23.8 28.4 23.8 5.9-.2 12.2-1.8 18.9-5.3zM199 56c0 1 0 2 .2 3l34.2-7.6c-1.6-12.7-7.9-19.5-16.2-19.5-15.2 0-18.3 13.7-18.2 24.1zm91.8-33.6c12.7 0 20 4.6 24.3 12.7l-14.2 6.6c-3.3-6.6-7.6-10.6-15.2-10.6-4 0-10.4 1.8-10.4 8.7 0 4.8 2 9.6 14.7 12.9 16 4.1 30 8.2 30 22.6 0 14.2-14.7 25.4-31.5 25.4-23.3 0-28.2-12.5-30.2-18.6l14.2-6.6c2 4.6 7.9 16.3 22.1 16.3 4.1 0 12.7-2.3 12.7-10.9 0-8.4-11.7-11.4-21-14.2-14.7-4.5-23.4-8.7-23.4-21.4 0-11.9 11.2-22.9 27.9-22.9z" fill="white"/>
  <path d="M400 24.3v4.9c-6.6 1.2-8.7 5.1-11.9 13.9-5.3 14.7-15.3 38.9-21.4 50.2-14 25.7-23.9 29.4-32.3 29.4-9.7 0-15.3-8.4-16.8-14l14.2-6.6c1.7 4.1 5 8.4 9.6 8.4 3.8 0 7.3-2.1 15.7-15.2-9.4-16.3-17.3-36-23.4-54.1-3.1-9.2-7.1-11.1-11.1-11.9v-4.9c4.6.3 12 .5 18 .5 3.5 0 11.1-.2 16.3-.5v4.9c-8.1.7-9.4 4.6-6.3 14.5 4.1 12.7 9.6 24.7 14.8 35.3 6.1-13.2 11.1-24.9 14-34.6 3.8-11.9-2.3-14.7-7.6-15.2v-4.9c3.6.2 9.9.3 14.7.3 4.3 0 9.9-.2 13.5-.4zm66.2 69.5v5c-5.8.2-19 .7-22.8 1.3-1.6-2.3-2.6-6.3-3.1-10.4-7.1 6.4-15.7 11.1-24.6 11.1-14 0-19.8-10.2-19.8-17.7 0-20.6 26.7-26.1 43.7-30.9v-5.3c0-11.4-4.6-14.2-10.7-14.2-5.8 0-15.5 3-23.4 9.7l-3.1-4.8c7.6-8.1 20.6-15.3 31.5-15.3 13.5 0 21.4 5.8 21.4 21.1v35.1c0 9.4 1.6 14.3 10.9 15.3zm-26.6-9.7V57.5c-11.4 3.6-27.7 8.9-27.7 22.3 0 5.1 4.8 10.7 12.2 10.7 5.3 0 11-2.8 15.5-6.4z" fill="white"/>
</svg>
