<svg width="156" height="47" viewBox="0 0 156 47" fill="none" xmlns="http://www.w3.org/2000/svg">
<path d="M13.0925 22.9267C11.9829 24.8226 10.2964 26.5421 7.50042 26.5421C2.70725 26.5421 0.355042 22.3536 0.355042 17.9887C0.355042 13.3151 3.37297 8.37703 10.0301 8.37703H13.0925V5.24663L10.6071 2.46896L17.4862 0.396729V23.6763L20.1934 26.2335L13.0925 26.5862V22.9267ZM13.0925 11.8601C11.9829 10.7138 10.474 9.65564 8.56557 9.65564C5.32574 9.65564 4.66002 12.5215 4.66002 14.6819C4.66002 20.3695 7.18975 22.5299 10.2964 22.5299C11.2728 22.574 12.2936 22.2654 13.0481 21.604L13.0925 11.8601Z" fill="white"/>
<path d="M36.3482 15.9165H24.5872C24.9866 20.5901 27.5163 22.5741 30.3567 22.5741C32.8421 22.5741 35.0612 21.3396 35.5937 19.7965L36.1263 20.0169C34.7949 23.3237 32.2208 26.6745 27.8714 26.6745C23.0782 26.6745 20.371 22.4419 20.371 18.0769C20.371 13.4034 23.3001 8.02441 29.2472 8.02441C33.5966 8.02441 36.2594 10.9344 36.3038 15.8284L36.3482 15.9165ZM31.5994 14.5057C31.5994 10.6257 30.0461 9.08258 28.404 9.08258C25.608 9.08258 24.4984 12.3893 24.4984 14.5938V14.8584H31.5994V14.5057Z" fill="white"/>
<path d="M53.2575 4.8057C53.1687 6.61339 52.7249 8.377 51.8817 9.96424C52.7249 10.9342 53.1687 12.2128 53.1687 13.4914C53.1687 16.6218 50.5502 20.5018 44.9138 20.5018C44.1593 20.5018 43.4492 20.4136 42.7391 20.1931C42.2509 20.6781 41.3633 21.3395 41.3633 21.8245C41.3633 22.9267 42.0734 23.4117 43.3605 23.5881H53.2131C53.7457 24.4699 54.0563 25.528 54.0563 26.5862C54.0563 30.8188 50.8165 34.6106 44.7807 34.6106C39.8543 34.6106 37.4578 33.0233 37.4578 30.5102C37.4578 28.7466 39.3662 27.6884 40.5644 27.2035C39.4993 26.7626 38.3454 25.6162 38.3454 24.2494C38.3454 22.0449 40.2982 20.8104 41.7627 19.9286C39.6768 19.0909 38.301 17.0627 38.3454 14.8141C38.3454 11.6838 40.8751 7.9361 46.5559 7.9361C47.1773 7.9361 47.7986 7.98019 48.4199 8.11246C49.3519 7.80383 50.9497 7.23066 53.08 4.76161C53.1243 4.71752 53.2575 4.8057 53.2575 4.8057ZM41.4521 27.7325C40.6532 28.3057 40.2094 29.2316 40.2538 30.2016C40.2538 32.5824 42.029 33.817 45.3132 33.817C49.3963 33.817 51.3047 31.5684 51.3047 29.8048C51.3491 29.0993 51.1716 28.3498 50.8165 27.7325H41.4521ZM43.0942 12.6096C43.0942 16.3573 44.3812 19.5318 46.4672 19.5318C48.2868 19.5318 48.4643 17.1509 48.4643 15.6959C48.4643 11.9483 47.1329 8.99426 45.0026 8.99426C43.2273 8.99426 43.0942 11.1106 43.0942 12.6096Z" fill="white"/>
<path d="M69.8117 14.8143C68.1696 10.9785 66.0393 9.6999 64.3528 9.6999C61.823 9.6999 61.823 11.5076 61.823 15.2112V23.0592L65.2404 26.1896H54.722L57.4293 23.0592V11.1549L54.944 8.3772H70.0779V14.8143H69.8117Z" fill="white"/>
<path d="M79.6643 26.6305C74.4717 26.6305 71.7201 22.4419 71.7201 18.077C71.7201 13.4034 74.9155 7.93628 81.7059 7.93628C86.8985 7.93628 89.6501 12.1248 89.6501 16.4897C89.6501 21.1633 86.499 26.6305 79.6643 26.6305ZM76.3801 14.7702C76.3801 20.4579 78.466 25.2637 81.7059 25.2637C84.4131 25.2637 85.1232 21.6924 85.1232 19.7965C85.1232 14.1089 82.9929 9.34716 79.7975 9.34716C76.7352 9.30307 76.3801 12.5657 76.3801 14.7702Z" fill="white"/>
<path d="M88.8068 8.3772H98.5263L95.8634 10.714L99.6802 20.1052L100.124 21.3397L103.364 13.5357L102.432 11.3312L100.035 8.3772H109.71L107.092 10.714L110.909 20.1052L111.352 20.8988L115.302 10.714L112.684 8.3772H119.208L117.078 10.6699L110.287 27.0273H109.488L104.296 15.2993L99.1033 27.0273H98.3044L91.3366 11.3312L88.8068 8.3772Z" fill="white"/>
<path d="M126.842 8.37704H133.854L133.055 10.3611H126.842V19.3114C126.842 22.7945 127.64 23.7645 129.815 23.7645C131.324 23.7645 132.7 22.9708 133.41 21.6481L133.854 22.2213C132.079 25.1754 130.126 26.6744 127.152 26.6744C124.622 26.6744 122.448 25.2194 122.448 21.075V10.6697L120.051 8.37704L126.842 3.21851V8.37704Z" fill="white"/>
<path d="M141.399 11.2429C142.73 9.17065 144.993 7.89204 147.434 7.84795C151.207 7.84795 152.938 10.2729 152.938 13.6678V23.059H152.982L155.689 26.1894H145.881L148.544 23.1031V14.9024C148.544 12.1247 148.145 10.317 145.349 10.317C144.017 10.317 142.597 10.8902 141.443 12.4774V23.059L144.15 26.1894H134.342L137.049 23.059V5.59936L134.564 2.82168L141.443 0.396729V11.2429H141.399Z" fill="white"/>
<path d="M99.0145 43.6932C98.9701 44.0459 98.8813 44.3987 98.7926 44.7073C98.6594 45.06 98.5263 45.4127 98.3044 45.7214C98.0825 46.1182 97.8162 46.4709 97.5055 46.8236L97.0617 46.4268C97.328 46.1182 97.5499 45.8095 97.7274 45.5009C97.905 45.2364 98.0381 44.9277 98.1712 44.6191C98.26 44.3105 98.3488 44.0018 98.3931 43.6932C98.4375 43.3405 98.4819 43.0319 98.4375 42.6791V35.1838H99.0589V42.5469C99.0589 42.9878 99.0589 43.3405 99.0145 43.6932Z" fill="white"/>
<path d="M110.11 39.9456C110.11 40.5629 110.021 41.2242 109.799 41.7974C109.622 42.3706 109.311 42.8997 108.912 43.3847C108.512 43.8256 108.024 44.2224 107.491 44.4869C106.293 45.016 104.873 45.016 103.675 44.4869C103.142 44.2224 102.654 43.8697 102.254 43.3847C101.855 42.8997 101.544 42.3706 101.367 41.7974C100.967 40.5629 100.967 39.2843 101.367 38.0498C101.544 37.4766 101.855 36.9475 102.254 36.4625C103.586 35.0075 105.672 34.5666 107.491 35.3603C108.024 35.6248 108.512 35.9775 108.912 36.4625C109.311 36.9475 109.622 37.4766 109.799 38.0498C110.021 38.7111 110.11 39.3284 110.11 39.9456ZM109.488 39.9456C109.488 39.3725 109.4 38.7993 109.222 38.2261C109.045 37.697 108.778 37.2561 108.468 36.8152C107.181 35.2721 104.828 35.0516 103.275 36.3302C103.098 36.4625 102.92 36.6389 102.787 36.8152C102.432 37.212 102.166 37.697 102.032 38.2261C101.677 39.3284 101.677 40.5188 102.032 41.6211C102.21 42.1501 102.476 42.591 102.787 43.0319C103.497 43.8696 104.518 44.3546 105.627 44.3546C106.204 44.3546 106.737 44.2665 107.225 44.0019C107.713 43.7815 108.113 43.4287 108.468 43.0319C108.823 42.6351 109.089 42.1501 109.222 41.6211C109.4 41.1361 109.488 40.5629 109.488 39.9456Z" fill="white"/>
<path d="M119.03 42.8114C118.897 43.2082 118.675 43.605 118.365 43.9137C118.054 44.2223 117.655 44.4868 117.255 44.6632C116.234 45.0159 115.125 45.0159 114.104 44.6632C113.705 44.4868 113.305 44.2223 112.995 43.9137C112.684 43.605 112.462 43.2523 112.329 42.8114C112.196 42.3705 112.107 41.9296 112.107 41.4887V35.1838H112.728V41.5328C112.728 41.9296 112.773 42.3264 112.906 42.6791C113.039 43.0319 113.217 43.2964 113.483 43.5609C113.749 43.8255 114.06 44.0018 114.415 44.1341C115.214 44.3987 116.101 44.3987 116.945 44.1341C117.3 44.0018 117.61 43.8255 117.877 43.5609C118.143 43.2964 118.32 43.0319 118.454 42.6791C118.587 42.3264 118.631 41.9296 118.631 41.5328V35.1838H119.252V41.4887C119.252 41.9296 119.164 42.3705 119.03 42.8114Z" fill="white"/>
<path d="M127.285 37.7411C127.285 38.4024 127.063 39.0197 126.575 39.4606C126.043 39.9456 125.421 40.2542 124.756 40.4306L128.262 44.7514H127.507L124.09 40.5628C123.824 40.6069 123.557 40.6069 123.247 40.6069H122.403V44.7514H121.782V35.1838H123.912C124.356 35.1838 124.756 35.2279 125.155 35.3602C125.555 35.4484 125.91 35.6247 126.22 35.8452C126.531 36.0656 126.797 36.3302 126.975 36.6388C127.197 36.9474 127.285 37.3442 127.285 37.7411ZM126.62 37.7851C126.62 37.4765 126.531 37.1238 126.398 36.8593C126.22 36.5947 126.043 36.3743 125.776 36.242C125.51 36.0656 125.199 35.9334 124.889 35.8893C124.578 35.8011 124.223 35.757 123.868 35.757H122.448V40.0778H123.335C123.779 40.0778 124.223 40.0337 124.622 39.9015C124.978 39.8133 125.333 39.681 125.688 39.4606C125.954 39.2842 126.22 39.0197 126.398 38.7551C126.531 38.4465 126.62 38.0938 126.62 37.7851Z" fill="white"/>
<path d="M136.561 44.7514L130.525 36.1538V44.7514H129.904V35.1838H130.525L136.561 43.7373V35.1838H137.182V44.7514H136.561Z" fill="white"/>
<path d="M147.079 44.7514H146.458L145.437 42.1501H140.644L139.623 44.7514H139.002L142.819 35.1838H143.263L147.079 44.7514ZM140.866 41.621H145.215L143.041 35.9775L140.866 41.621Z" fill="white"/>
<path d="M148.899 44.7514V35.1838H149.52V44.1782H153.603V44.7073L148.899 44.7514Z" fill="white"/>
</svg>
