<svg width="160" height="54" viewBox="0 0 160 54" fill="none" xmlns="http://www.w3.org/2000/svg">
<path d="M64.749 11.2133L67.4146 4.67503H68.6293V12.6023H67.8195V5.69135H67.7857L64.9515 12.5684H64.5129L61.6786 5.69135H61.6449V12.5684H60.8351V4.64116H62.0498L64.749 11.2133ZM71.531 11.857H75.7486V12.5684H70.7212V4.64116H75.6137V5.35258H71.531V8.06274H75.3437V8.80803H71.531V11.857ZM73.2855 4.03137H72.6445L73.7579 2.40527H74.7701L73.2855 4.03137ZM77.3007 4.64116H79.9325C80.4386 4.64116 80.911 4.70891 81.4171 4.8783C81.9232 5.04768 82.3619 5.28482 82.7668 5.62359C83.1717 5.96236 83.4753 6.36889 83.7453 6.87704C84.0152 7.3852 84.1164 7.96111 84.1164 8.60477C84.1164 9.28231 83.9814 9.85822 83.7453 10.3325C83.5091 10.8407 83.1717 11.2472 82.7668 11.5521C82.3619 11.8908 81.9232 12.128 81.4171 12.2974C80.911 12.4668 80.4386 12.5345 79.9325 12.5345H77.3007V4.64116ZM78.1105 11.857H79.6963C80.3037 11.857 80.8098 11.7553 81.2484 11.5859C81.687 11.4166 82.0582 11.1455 82.3281 10.8407C82.6318 10.5358 82.8342 10.197 82.9692 9.79047C83.1042 9.41782 83.1717 9.0113 83.1717 8.60477C83.1717 8.19825 83.1042 7.79172 82.9692 7.41907C82.8342 7.04643 82.5981 6.67378 82.3281 6.36889C82.0245 6.06399 81.687 5.82685 81.2484 5.62359C80.8098 5.45421 80.3037 5.35258 79.6963 5.35258H78.1105V11.857ZM86.5458 12.5684H85.736V4.64116H86.5458V12.5684ZM88.5702 12.5684H87.6929L91.1008 4.64116H91.8768L95.2509 12.5684H94.3737L93.4964 10.5019H89.4137L88.5702 12.5684ZM89.7512 9.75659H93.2265L91.5057 5.55584L89.7512 9.75659ZM98.2876 12.5684H97.4778V5.38645H94.8461V4.67503H100.919V5.38645H98.2876V12.5684ZM102.91 12.5684H102.1V4.64116H102.91V12.5684ZM112.796 8.60477C112.796 9.21456 112.695 9.75659 112.493 10.2647C112.29 10.7729 111.986 11.2133 111.615 11.5859C111.244 11.9586 110.806 12.2296 110.299 12.4668C109.793 12.7039 109.253 12.7716 108.68 12.7716C108.106 12.7716 107.566 12.67 107.06 12.4668C106.554 12.2635 106.116 11.9586 105.744 11.5859C105.373 11.2133 105.103 10.7729 104.867 10.2647C104.665 9.75659 104.563 9.21456 104.563 8.60477C104.563 7.99498 104.665 7.45295 104.867 6.9448C105.07 6.43664 105.373 5.99624 105.744 5.62359C106.116 5.25094 106.554 4.97993 107.06 4.74279C107.566 4.53953 108.106 4.4379 108.68 4.4379C109.253 4.4379 109.793 4.53953 110.299 4.74279C110.806 4.94605 111.244 5.25094 111.615 5.62359C111.986 5.99624 112.256 6.43664 112.493 6.9448C112.695 7.45295 112.796 7.99498 112.796 8.60477ZM111.953 8.60477C111.953 8.13049 111.885 7.69009 111.717 7.28357C111.582 6.87704 111.345 6.50439 111.075 6.1995C110.806 5.89461 110.434 5.62359 110.03 5.45421C109.625 5.28482 109.186 5.18319 108.68 5.18319C108.174 5.18319 107.735 5.28482 107.33 5.45421C106.925 5.62359 106.588 5.89461 106.284 6.1995C106.014 6.50439 105.778 6.87704 105.643 7.28357C105.508 7.69009 105.407 8.13049 105.407 8.60477C105.407 9.07905 105.474 9.51945 105.643 9.92597C105.778 10.3325 106.014 10.7051 106.284 11.01C106.554 11.3149 106.925 11.5859 107.33 11.7553C107.735 11.9247 108.174 12.0264 108.68 12.0264C109.186 12.0264 109.625 11.9247 110.03 11.7553C110.434 11.5859 110.772 11.3149 111.075 11.01C111.345 10.7051 111.582 10.3325 111.717 9.92597C111.885 9.51945 111.953 9.07905 111.953 8.60477ZM120.051 11.3827L120.084 4.64116H120.894V12.5684H119.882L115.293 5.7591H115.259V12.5684H114.45V4.64116H115.462L120.051 11.3827ZM126.799 5.92849C126.63 5.69135 126.394 5.48808 126.158 5.35258C125.888 5.21707 125.584 5.14931 125.179 5.14931C124.977 5.14931 124.774 5.18319 124.606 5.25094C124.403 5.3187 124.234 5.38645 124.066 5.52196C123.897 5.65747 123.762 5.79298 123.661 5.99624C123.56 6.1995 123.526 6.40276 123.526 6.6399C123.526 6.87704 123.56 7.11418 123.661 7.24969C123.762 7.41907 123.897 7.55458 124.032 7.65621C124.201 7.75784 124.369 7.85948 124.572 7.92723C124.774 7.99498 124.977 8.06274 125.213 8.16437C125.483 8.266 125.753 8.36763 126.057 8.46926C126.326 8.57089 126.596 8.7064 126.799 8.87579C127.035 9.04517 127.204 9.24843 127.339 9.51945C127.474 9.79047 127.541 10.0954 127.541 10.5019C127.541 10.9084 127.474 11.2472 127.305 11.5182C127.17 11.7892 126.968 12.0264 126.731 12.2296C126.495 12.4329 126.225 12.5684 125.922 12.6361C125.618 12.7378 125.314 12.7716 124.977 12.7716C124.741 12.7716 124.504 12.7378 124.268 12.7039C124.032 12.67 123.796 12.5684 123.593 12.5006C123.391 12.4329 123.189 12.2974 122.986 12.128C122.817 11.9925 122.649 11.8231 122.48 11.6198L123.155 11.1117C123.323 11.3827 123.56 11.6198 123.863 11.8231C124.167 12.0264 124.538 12.0941 124.943 12.0941C125.145 12.0941 125.348 12.0602 125.55 11.9925C125.753 11.9247 125.955 11.8231 126.124 11.6876C126.293 11.5521 126.428 11.3827 126.529 11.2133C126.63 11.01 126.698 10.8068 126.698 10.5358C126.698 10.2647 126.63 10.0276 126.529 9.85822C126.428 9.68884 126.293 9.51945 126.09 9.38394C125.922 9.24844 125.719 9.1468 125.483 9.07905C125.247 9.01129 125.011 8.90966 124.774 8.84191C124.504 8.77416 124.268 8.67252 123.998 8.57089C123.762 8.46926 123.526 8.33375 123.323 8.16437C123.121 7.99498 122.952 7.79172 122.851 7.55458C122.716 7.31744 122.682 7.01255 122.682 6.6399C122.682 6.26726 122.75 5.92849 122.919 5.65747C123.087 5.38645 123.256 5.14931 123.526 4.97993C123.762 4.81054 124.032 4.67503 124.336 4.5734C124.639 4.50565 124.909 4.4379 125.213 4.4379C125.753 4.4379 126.191 4.53953 126.596 4.70891C127.001 4.8783 127.271 5.11544 127.44 5.38645L126.799 5.92849ZM61.6449 25.1029H60.8351V17.1757H61.6449V25.1029ZM69.3378 23.9172L69.3716 17.1757H70.1814V25.1029H69.1691L64.5803 18.2936H64.5466V25.1029H63.7368V17.1757H64.749L69.3378 23.9172ZM73.0493 25.1029H72.2396V17.1757H76.997V17.8871H73.0493V20.6311H76.7271V21.3425H73.0493V25.1029ZM86.3096 21.1393C86.3096 21.7491 86.2083 22.2911 86.0059 22.7993C85.8035 23.3074 85.4998 23.7478 85.1286 24.1205C84.7575 24.4931 84.3188 24.7641 83.8127 25.0013C83.3066 25.2384 82.7668 25.3061 82.1932 25.3061C81.6196 25.3061 81.0797 25.2045 80.5736 25.0013C80.0675 24.798 79.6288 24.4931 79.2577 24.1205C78.8865 23.7478 78.6166 23.3074 78.3804 22.7993C78.178 22.2911 78.0768 21.7491 78.0768 21.1393C78.0768 20.5295 78.178 19.9875 78.3804 19.4793C78.5829 18.9711 78.8865 18.5307 79.2577 18.1581C79.6288 17.7854 80.0675 17.5144 80.5736 17.2773C81.0797 17.074 81.6196 16.9724 82.1932 16.9724C82.7668 16.9724 83.3066 17.074 83.8127 17.2773C84.3188 17.4806 84.7575 17.7854 85.1286 18.1581C85.4998 18.5307 85.7697 18.9711 86.0059 19.4793C86.2083 19.9875 86.3096 20.5295 86.3096 21.1393ZM85.466 21.1393C85.466 20.665 85.3986 20.2246 85.2299 19.8181C85.0949 19.4115 84.8587 19.0389 84.5888 18.734C84.3188 18.4291 83.9477 18.1581 83.5428 17.9887C83.1379 17.8193 82.6993 17.7177 82.1932 17.7177C81.687 17.7177 81.2484 17.8193 80.8435 17.9887C80.4386 18.1581 80.1012 18.4291 79.7976 18.734C79.5276 19.0389 79.2914 19.4115 79.1565 19.8181C79.0215 20.2246 78.9203 20.665 78.9203 21.1393C78.9203 21.6136 78.9878 22.054 79.1565 22.4605C79.2914 22.867 79.5276 23.2397 79.7976 23.5445C80.0675 23.8494 80.4386 24.1205 80.8435 24.2898C81.2484 24.4592 81.687 24.5609 82.1932 24.5609C82.6993 24.5609 83.1379 24.4592 83.5428 24.2898C83.9477 24.1205 84.2851 23.8494 84.5888 23.5445C84.8587 23.2397 85.0949 22.867 85.2299 22.4605C85.3986 22.054 85.466 21.6136 85.466 21.1393ZM88.7727 25.1029H87.9629V17.1757H90.291C90.6622 17.1757 91.0333 17.2095 91.3707 17.2773C91.7081 17.345 91.9781 17.4806 92.2142 17.6499C92.4504 17.8193 92.6529 18.0226 92.7878 18.2936C92.9228 18.5646 92.9903 18.9034 92.9903 19.276C92.9903 19.5809 92.9228 19.8181 92.8216 20.0552C92.7204 20.2923 92.5854 20.4956 92.3829 20.665C92.2142 20.8344 91.9781 20.9699 91.7419 21.0715C91.5057 21.1732 91.2358 21.2409 90.9321 21.2748L93.2265 25.0351H92.248L90.0548 21.3425H88.7052V25.1029H88.7727ZM88.7727 20.6989H90.1561C90.7971 20.6989 91.3032 20.5972 91.6407 20.3601C91.9781 20.123 92.1805 19.7842 92.1805 19.3099C92.1805 19.0389 92.1468 18.8356 92.0455 18.6663C91.9443 18.4969 91.8094 18.3275 91.6407 18.2258C91.472 18.1242 91.2695 18.0226 91.0333 17.9887C90.7971 17.921 90.5272 17.921 90.2235 17.921H88.8064V20.6989H88.7727ZM98.5576 23.7478L101.223 17.2095H102.438V25.1368H101.628V18.2258H101.594L98.76 25.1029H98.3214L95.4871 18.2258H95.4534V25.1029H94.6436V17.1757H95.8583L98.5576 23.7478ZM104.462 25.1029H103.585L106.993 17.1757H107.769L111.143 25.1029H110.266L109.388 23.0364H105.306L104.462 25.1029ZM105.609 22.2911H109.085L107.364 18.0903L105.609 22.2911ZM114.18 25.1029H113.37V17.921H110.738V17.2095H116.811V17.921H114.18V25.1029ZM118.768 25.1029H117.959V17.1757H118.768V25.1029ZM128.688 21.1393C128.688 21.7491 128.587 22.2911 128.385 22.7993C128.182 23.3074 127.879 23.7478 127.507 24.1205C127.136 24.4931 126.698 24.7641 126.191 25.0013C125.685 25.2384 125.146 25.3061 124.572 25.3061C123.998 25.3061 123.458 25.2045 122.952 25.0013C122.446 24.798 122.008 24.4931 121.636 24.1205C121.265 23.7478 120.995 23.3074 120.759 22.7993C120.557 22.2911 120.455 21.7491 120.455 21.1393C120.455 20.5295 120.557 19.9875 120.759 19.4793C120.962 18.9711 121.265 18.5307 121.636 18.1581C122.008 17.7854 122.446 17.5144 122.952 17.2773C123.458 17.074 123.998 16.9724 124.572 16.9724C125.146 16.9724 125.685 17.074 126.191 17.2773C126.698 17.4806 127.136 17.7854 127.507 18.1581C127.879 18.5307 128.148 18.9711 128.385 19.4793C128.553 19.9875 128.688 20.5295 128.688 21.1393ZM127.811 21.1393C127.811 20.665 127.744 20.2246 127.575 19.8181C127.44 19.4115 127.204 19.0389 126.934 18.734C126.664 18.4291 126.293 18.1581 125.888 17.9887C125.483 17.8193 125.044 17.7177 124.538 17.7177C124.032 17.7177 123.593 17.8193 123.189 17.9887C122.784 18.1581 122.446 18.4291 122.143 18.734C121.873 19.0389 121.636 19.4115 121.501 19.8181C121.367 20.2246 121.265 20.665 121.265 21.1393C121.265 21.6136 121.333 22.054 121.501 22.4605C121.636 22.867 121.873 23.2397 122.143 23.5445C122.412 23.8494 122.784 24.1205 123.189 24.2898C123.593 24.4592 124.032 24.5609 124.538 24.5609C125.044 24.5609 125.483 24.4592 125.888 24.2898C126.293 24.1205 126.63 23.8494 126.934 23.5445C127.204 23.2397 127.44 22.867 127.575 22.4605C127.744 22.054 127.811 21.6136 127.811 21.1393ZM135.943 23.9172L135.976 17.1757H136.786V25.1029H135.774L131.151 18.2936H131.118V25.1029H130.308V17.1757H131.32L135.943 23.9172ZM142.657 18.463C142.488 18.2259 142.252 18.0226 142.016 17.8871C141.746 17.7516 141.442 17.6838 141.038 17.6838C140.835 17.6838 140.633 17.7177 140.464 17.7854C140.261 17.8532 140.093 17.921 139.924 18.0565C139.755 18.192 139.62 18.3275 139.519 18.5307C139.418 18.734 139.384 18.9373 139.384 19.1744C139.384 19.4115 139.418 19.6487 139.519 19.7842C139.62 19.9536 139.755 20.0891 139.89 20.1907C140.059 20.2923 140.228 20.394 140.43 20.4617C140.633 20.5295 140.835 20.5972 141.071 20.6989C141.341 20.8005 141.611 20.9021 141.915 21.0038C142.185 21.1054 142.455 21.2409 142.657 21.4103C142.893 21.5797 143.062 21.7829 143.197 22.054C143.332 22.325 143.399 22.6299 143.399 23.0364C143.399 23.4429 143.332 23.7817 143.163 24.0527C143.028 24.3237 142.826 24.5609 142.59 24.7641C142.353 24.9674 142.083 25.1029 141.78 25.1706C141.476 25.2723 141.172 25.3061 140.835 25.3061C140.599 25.3061 140.363 25.2723 140.127 25.2384C139.89 25.2045 139.654 25.1029 139.452 25.0351C139.249 24.9674 139.047 24.8319 138.844 24.6625C138.676 24.527 138.507 24.3576 138.338 24.1543L139.013 23.6462C139.182 23.9172 139.418 24.1543 139.722 24.3576C140.025 24.5609 140.396 24.6286 140.801 24.6286C141.004 24.6286 141.206 24.5947 141.409 24.527C141.611 24.4592 141.814 24.3576 141.982 24.2221C142.151 24.0866 142.286 23.9172 142.387 23.7478C142.488 23.5445 142.556 23.3413 142.556 23.0703C142.556 22.7992 142.488 22.5621 142.387 22.3927C142.286 22.2233 142.151 22.054 141.949 21.9184C141.78 21.7829 141.577 21.6813 141.341 21.6136C141.105 21.5458 140.869 21.4442 140.633 21.3764C140.363 21.3087 140.127 21.207 139.857 21.1054C139.62 21.0038 139.384 20.8683 139.182 20.6989C138.979 20.5295 138.811 20.3262 138.709 20.0891C138.574 19.8519 138.541 19.5471 138.541 19.1744C138.541 18.8018 138.608 18.463 138.777 18.192C138.946 17.921 139.114 17.6838 139.384 17.5144C139.62 17.345 139.89 17.2095 140.194 17.1079C140.498 17.0402 140.768 16.9724 141.071 16.9724C141.611 16.9724 142.05 17.074 142.455 17.2434C142.86 17.4128 143.129 17.6499 143.298 17.921L142.657 18.463ZM67.4821 36.3501C67.3471 36.5533 67.1784 36.7566 67.0097 36.926C66.8073 37.0954 66.6048 37.2647 66.3686 37.4003C66.1324 37.5358 65.8288 37.6374 65.5588 37.739C65.2552 37.8068 64.9178 37.8745 64.5803 37.8745C63.973 37.8745 63.4331 37.7729 62.927 37.5696C62.4209 37.3664 61.9823 37.0615 61.6111 36.6888C61.24 36.3162 60.9701 35.8758 60.7676 35.3676C60.5652 34.8595 60.4639 34.3174 60.4639 33.7077C60.4639 33.0979 60.5652 32.5558 60.7676 32.0477C60.9701 31.5395 61.2737 31.0991 61.6449 30.7265C62.016 30.3538 62.4547 30.0828 62.9608 29.8457C63.4669 29.6424 64.0067 29.5408 64.5803 29.5408C64.884 29.5408 65.1539 29.5747 65.4239 29.6424C65.6938 29.7102 65.9637 29.7779 66.1999 29.9134C66.4361 30.0151 66.6723 30.1506 66.8747 30.32C67.0772 30.4893 67.2459 30.6587 67.3808 30.8281L66.706 31.3363C66.6385 31.2008 66.5036 31.0991 66.3686 30.9636C66.2337 30.8281 66.065 30.7265 65.8962 30.6248C65.6938 30.5232 65.4914 30.4555 65.2889 30.3877C65.0865 30.32 64.8503 30.2861 64.5803 30.2861C64.0742 30.2861 63.6019 30.3877 63.197 30.5571C62.7921 30.7265 62.4547 30.9975 62.151 31.3024C61.8811 31.6073 61.6449 31.9799 61.5099 32.3864C61.3749 32.793 61.2737 33.2334 61.2737 33.7077C61.2737 34.1819 61.3412 34.6223 61.5099 35.0289C61.6786 35.4354 61.8811 35.808 62.151 36.1129C62.4209 36.4178 62.7921 36.6888 63.197 36.8582C63.6019 37.0276 64.0405 37.1292 64.5466 37.1292C64.9852 37.1292 65.4239 37.0276 65.8288 36.8582C66.2337 36.6888 66.5711 36.3839 66.841 35.9774L67.4821 36.3501ZM76.5247 33.6738C76.5247 34.2836 76.4234 34.8256 76.221 35.3338C76.0186 35.8419 75.7149 36.2823 75.3437 36.655C74.9726 37.0276 74.5339 37.2986 74.0278 37.5358C73.5217 37.7729 72.9819 37.8407 72.4083 37.8407C71.8347 37.8407 71.2948 37.739 70.7887 37.5358C70.2826 37.3325 69.8439 37.0276 69.4728 36.655C69.1016 36.2823 68.8317 35.8419 68.5955 35.3338C68.3931 34.8256 68.2919 34.2836 68.2919 33.6738C68.2919 33.064 68.3931 32.522 68.5955 32.0138C68.798 31.5056 69.1016 31.0652 69.4728 30.6926C69.8439 30.32 70.2826 30.0489 70.7887 29.8118C71.2948 29.6085 71.8347 29.5069 72.4083 29.5069C72.9819 29.5069 73.5217 29.6085 74.0278 29.8118C74.5339 30.0151 74.9726 30.32 75.3437 30.6926C75.7149 31.0652 75.9848 31.5056 76.221 32.0138C76.4234 32.522 76.5247 33.064 76.5247 33.6738ZM75.6811 33.6738C75.6811 33.1995 75.6137 32.7591 75.445 32.3526C75.31 31.946 75.0738 31.5734 74.8039 31.2685C74.5339 30.9636 74.1628 30.6926 73.7579 30.5232C73.353 30.3538 72.9144 30.2522 72.4083 30.2522C71.9022 30.2522 71.4635 30.3538 71.0586 30.5232C70.6537 30.6926 70.3163 30.9636 70.0127 31.2685C69.7427 31.5734 69.5065 31.946 69.3716 32.3526C69.2366 32.7591 69.1354 33.1995 69.1354 33.6738C69.1354 34.1481 69.2029 34.5885 69.3716 34.995C69.5065 35.4015 69.7427 35.7742 70.0127 36.079C70.2826 36.3839 70.6537 36.655 71.0586 36.8243C71.4635 36.9937 71.9022 37.0954 72.4083 37.0954C72.9144 37.0954 73.353 36.9937 73.7579 36.8243C74.1628 36.655 74.5002 36.3839 74.8039 36.079C75.0738 35.7742 75.31 35.4015 75.445 34.995C75.6137 34.5885 75.6811 34.1481 75.6811 33.6738ZM82.0919 36.2823L84.7575 29.744H85.9722V37.6713H85.1624V30.7604H85.1286L82.2944 37.6374H81.8558L79.0215 30.7604H78.9878V37.6374H78.178V29.7102H79.3927L82.0919 36.2823ZM91.9781 36.2823L94.6436 29.744H95.8583V37.6713H95.0485V30.7604H95.0148L92.1805 37.6374H91.7419L88.9076 30.7604H88.8739V37.6374H88.0641V29.7102H89.2788L91.9781 36.2823ZM100.852 37.8407C100.245 37.8407 99.7722 37.739 99.4011 37.5358C99.0299 37.3325 98.7263 37.0615 98.4901 36.7566C98.2539 36.4517 98.1189 36.1129 98.0177 35.7403C97.9165 35.3676 97.8827 35.0289 97.8827 34.6901V29.7102H98.6925V34.5885C98.6925 34.8934 98.7263 35.2321 98.7937 35.537C98.8612 35.8419 98.9962 36.1129 99.1649 36.3501C99.3336 36.5872 99.5361 36.7905 99.8397 36.926C100.11 37.0615 100.447 37.1292 100.852 37.1292C101.257 37.1292 101.594 37.0615 101.864 36.926C102.134 36.7905 102.37 36.5872 102.539 36.3501C102.708 36.1129 102.843 35.8419 102.91 35.537C102.978 35.2321 103.011 34.9272 103.011 34.5885V29.7102H103.821V34.6901C103.821 35.0289 103.787 35.3676 103.686 35.7403C103.585 36.1129 103.45 36.4517 103.214 36.7566C102.978 37.0615 102.674 37.3325 102.303 37.5358C101.898 37.739 101.426 37.8407 100.852 37.8407ZM111.413 36.4517L111.447 29.7102H112.256V37.6374H111.244L106.655 30.8281H106.622V37.6374H105.812V29.7102H106.824L111.413 36.4517ZM115.158 37.6374H114.348V29.7102H115.158V37.6374ZM123.863 36.3501C123.728 36.5533 123.56 36.7566 123.391 36.926C123.189 37.0954 122.986 37.2647 122.75 37.4003C122.514 37.5358 122.21 37.6374 121.94 37.739C121.636 37.8068 121.299 37.8745 120.962 37.8745C120.354 37.8745 119.814 37.7729 119.308 37.5696C118.802 37.3664 118.364 37.0615 117.992 36.6888C117.621 36.3162 117.351 35.8758 117.149 35.3676C116.946 34.8595 116.845 34.3174 116.845 33.7077C116.845 33.0979 116.946 32.5558 117.149 32.0477C117.351 31.5395 117.655 31.0991 118.026 30.7265C118.397 30.3538 118.836 30.0828 119.342 29.8457C119.848 29.6424 120.388 29.5408 120.962 29.5408C121.265 29.5408 121.535 29.5747 121.805 29.6424C122.075 29.7102 122.345 29.7779 122.581 29.9134C122.817 30.0151 123.054 30.1506 123.256 30.32C123.458 30.4893 123.627 30.6587 123.762 30.8281L123.087 31.3363C123.02 31.2008 122.885 31.0991 122.75 30.9636C122.615 30.8281 122.446 30.7265 122.278 30.6248C122.075 30.5232 121.873 30.4555 121.67 30.3877C121.468 30.32 121.232 30.2861 120.962 30.2861C120.455 30.2861 119.983 30.3877 119.578 30.5571C119.173 30.7265 118.836 30.9975 118.532 31.3024C118.262 31.6073 118.026 31.9799 117.891 32.3864C117.756 32.793 117.655 33.2334 117.655 33.7077C117.655 34.1819 117.722 34.6223 117.891 35.0289C118.06 35.4354 118.262 35.808 118.532 36.1129C118.802 36.4178 119.173 36.6888 119.578 36.8582C119.983 37.0276 120.422 37.1292 120.928 37.1292C121.367 37.1292 121.805 37.0276 122.21 36.8582C122.615 36.6888 122.952 36.3839 123.222 35.9774L123.863 36.3501ZM125.078 37.6374H124.201L127.609 29.7102H128.385L131.759 37.6374H130.881L130.004 35.5709H125.922L125.078 37.6374ZM126.225 34.8256H129.701L127.98 30.6248L126.225 34.8256ZM134.762 37.6374H133.952V30.4555H131.32V29.744H137.393V30.4555H134.762V37.6374ZM139.384 37.6374H138.574V29.7102H139.384V37.6374ZM149.27 33.6738C149.27 34.2836 149.169 34.8256 148.967 35.3338C148.764 35.8419 148.461 36.2823 148.089 36.655C147.718 37.0276 147.28 37.2986 146.774 37.5358C146.267 37.7729 145.728 37.8407 145.154 37.8407C144.58 37.8407 144.04 37.739 143.534 37.5358C143.028 37.3325 142.59 37.0276 142.218 36.655C141.847 36.2823 141.577 35.8419 141.341 35.3338C141.139 34.8256 141.038 34.2836 141.038 33.6738C141.038 33.064 141.139 32.522 141.341 32.0138C141.544 31.5056 141.847 31.0652 142.218 30.6926C142.59 30.32 143.028 30.0489 143.534 29.8118C144.04 29.6085 144.58 29.5069 145.154 29.5069C145.728 29.5069 146.267 29.6085 146.774 29.8118C147.28 30.0151 147.718 30.32 148.089 30.6926C148.461 31.0652 148.73 31.5056 148.967 32.0138C149.169 32.522 149.27 33.064 149.27 33.6738ZM148.427 33.6738C148.427 33.1995 148.359 32.7591 148.191 32.3526C148.056 31.946 147.819 31.5734 147.55 31.2685C147.28 30.9636 146.908 30.6926 146.504 30.5232C146.099 30.3538 145.66 30.2522 145.154 30.2522C144.648 30.2522 144.209 30.3538 143.804 30.5232C143.399 30.6926 143.062 30.9636 142.758 31.2685C142.488 31.5734 142.252 31.946 142.117 32.3526C141.982 32.7591 141.881 33.1995 141.881 33.6738C141.881 34.1481 141.949 34.5885 142.117 34.995C142.252 35.4015 142.488 35.7742 142.758 36.079C143.028 36.3839 143.399 36.655 143.804 36.8243C144.209 36.9937 144.648 37.0954 145.154 37.0954C145.66 37.0954 146.099 36.9937 146.504 36.8243C146.908 36.655 147.246 36.3839 147.55 36.079C147.819 35.7742 148.056 35.4015 148.191 34.995C148.359 34.5885 148.427 34.1481 148.427 33.6738ZM156.558 36.4517L156.592 29.7102H157.402V37.6374H156.39L151.767 30.8281H151.733V37.6374H150.924V29.7102H151.936L156.558 36.4517ZM60.8013 50.1719H59.9241L63.3319 42.2447H64.108L67.4821 50.1719H66.6048L65.7275 48.1054H61.6449L60.8013 50.1719ZM61.9485 47.3601H65.4239L63.7031 43.1593L61.9485 47.3601ZM69.4391 50.1719H68.6293V42.2447H70.9574C71.3286 42.2447 71.6997 42.2785 72.0371 42.3463C72.3745 42.4141 72.6445 42.5496 72.8806 42.7189C73.1168 42.8883 73.3193 43.0916 73.4542 43.3626C73.5892 43.6336 73.6567 43.9724 73.6567 44.345C73.6567 44.6499 73.5892 44.8871 73.488 45.1242C73.3868 45.3614 73.2518 45.5646 73.0493 45.734C72.8806 45.9034 72.6445 46.0389 72.4083 46.1405C72.1721 46.2422 71.9021 46.3099 71.5985 46.3438L73.8929 50.1041H72.9144L70.7212 46.4115H69.3716V50.1719H69.4391ZM69.4391 45.7679H70.8224C71.4635 45.7679 71.9696 45.6663 72.307 45.4291C72.6445 45.192 72.8469 44.8532 72.8469 44.3789C72.8469 44.1079 72.8132 43.9046 72.7119 43.7353C72.6107 43.5659 72.4757 43.3965 72.307 43.2949C72.1383 43.1932 71.9359 43.0916 71.6997 43.0577C71.4635 42.99 71.1936 42.99 70.8899 42.99H69.4728V45.7679H69.4391ZM77.7056 50.1719H76.8958V42.9561H74.264V42.2447H80.3374V42.9561H77.7056V50.1719ZM85.3648 43.532C85.1961 43.2949 84.9599 43.0916 84.7237 42.9561C84.4876 42.8206 84.1501 42.7528 83.7453 42.7528C83.5428 42.7528 83.3404 42.7867 83.1717 42.8545C82.9692 42.9222 82.8005 42.99 82.6318 43.1255C82.4631 43.261 82.3281 43.3965 82.2269 43.5998C82.1257 43.803 82.0919 44.0063 82.0919 44.2434C82.0919 44.4806 82.1257 44.7177 82.2269 44.8532C82.3281 44.9887 82.4631 45.1581 82.5981 45.2597C82.733 45.3614 82.9355 45.463 83.1379 45.5307C83.3404 45.5985 83.5428 45.6662 83.779 45.7679C84.0489 45.8695 84.3188 45.9711 84.6225 46.0728C84.8924 46.1744 85.1624 46.3099 85.3648 46.4793C85.601 46.6487 85.7697 46.8519 85.9047 47.123C86.0396 47.394 86.1071 47.6989 86.1071 48.1054C86.1071 48.5119 86.0396 48.8507 85.8709 49.1217C85.736 49.3927 85.5335 49.6299 85.2973 49.8331C85.0612 50.0364 84.7912 50.1719 84.4876 50.2396C84.1839 50.3413 83.8802 50.3752 83.5428 50.3752C83.3066 50.3752 83.0704 50.3413 82.8342 50.3074C82.5981 50.2735 82.3619 50.1719 82.1594 50.1041C81.957 50.0025 81.7545 49.9009 81.5521 49.7315C81.3834 49.596 81.2147 49.4266 81.046 49.2233L81.7208 48.7152C81.8895 48.9862 82.1257 49.2233 82.4294 49.4266C82.733 49.6299 83.1042 49.6976 83.5091 49.6976C83.7115 49.6976 83.914 49.6637 84.1164 49.596C84.3188 49.5282 84.5213 49.4266 84.69 49.2911C84.8587 49.1556 84.9937 48.9862 85.0949 48.8168C85.1961 48.6136 85.2636 48.4103 85.2636 48.1393C85.2636 47.8683 85.1961 47.6311 85.0949 47.4617C84.9937 47.2923 84.8587 47.123 84.6563 46.9874C84.4876 46.8519 84.2851 46.7503 84.0489 46.6826C83.8127 46.6148 83.5765 46.5132 83.3404 46.4454C83.0704 46.3777 82.8342 46.276 82.5643 46.1744C82.3281 46.0728 82.0919 45.9373 81.8895 45.7679C81.687 45.5985 81.5183 45.3952 81.4171 45.1581C81.2822 44.921 81.2484 44.6161 81.2484 44.2434C81.2484 43.8708 81.3159 43.532 81.4846 43.261C81.6533 42.99 81.822 42.7528 82.0919 42.5834C82.3281 42.4141 82.5981 42.2785 82.9017 42.1769C83.2054 42.1092 83.4753 42.0414 83.779 42.0414C84.3188 42.0414 84.7575 42.143 85.1624 42.3124C85.5335 42.5157 85.8372 42.7189 86.0059 42.99L85.3648 43.532Z" fill="white"/>
<path d="M23.6525 25.5093H2.96921C2.15942 25.5093 1.4846 24.8318 1.4846 24.0188V3.286C1.4846 2.47295 2.15942 1.79541 2.96921 1.79541H23.6187C24.4285 1.79541 25.1033 2.47295 25.1033 3.286V24.0188C25.1033 24.8657 24.4622 25.5093 23.6525 25.5093Z" fill="#030093"/>
<path d="M49.9705 25.5093H29.2872C28.4774 25.5093 27.8026 24.8318 27.8026 24.0188V3.286C27.8026 2.47295 28.4774 1.79541 29.2872 1.79541H49.9367C50.7465 1.79541 51.4213 2.47295 51.4213 3.286V24.0188C51.4213 24.8657 50.7803 25.5093 49.9705 25.5093Z" fill="#FF8400"/>
<path d="M23.6525 52.1705H2.96921C2.15942 52.1705 1.4846 51.4929 1.4846 50.6799V29.9471C1.4846 29.1341 2.15942 28.4565 2.96921 28.4565H23.6187C24.4285 28.4565 25.1033 29.1341 25.1033 29.9471V50.6799C25.1033 51.4929 24.4622 52.1705 23.6525 52.1705Z" fill="#E00041"/>
<path d="M49.9705 52.1705H29.2872C28.4774 52.1705 27.8026 51.4929 27.8026 50.6799V29.9471C27.8026 29.1341 28.4774 28.4565 29.2872 28.4565H49.9367C50.7465 28.4565 51.4213 29.1341 51.4213 29.9471V50.6799C51.4213 51.4929 50.7803 52.1705 49.9705 52.1705Z" fill="#759B00"/>
<path d="M16.4994 18.6322L16.5668 11.5858H16.5331L13.935 18.6322H12.248L9.75115 11.5858H9.71741L9.7849 18.6322H7.52425V8.67236H10.9321L13.1927 15.0412H13.2602L15.4196 8.67236H18.895V18.6322H16.4994ZM42.21 45.2257L41.434 43.2608H37.5875L36.8452 45.2257H34.2471L38.3973 35.2658H40.7254L44.8418 45.2257H42.21ZM39.5782 37.9421L38.3298 41.3637H40.8266L39.5782 37.9421ZM15.9258 45.0563C15.2847 45.3612 14.5424 45.4967 13.6989 45.4967C12.9228 45.4967 12.2143 45.3612 11.5732 45.1241C10.9321 44.8869 10.3585 44.5143 9.88612 44.04C9.41374 43.5657 9.04259 43.0237 8.77266 42.38C8.50274 41.7364 8.36777 41.0249 8.36777 40.2458C8.36777 39.4666 8.50274 38.7213 8.77266 38.0776C9.04259 37.434 9.41374 36.8919 9.91986 36.4177C10.3922 35.9773 10.9658 35.6046 11.6407 35.3675C12.2817 35.1303 12.9903 34.9948 13.7663 34.9948C14.4749 34.9948 15.1497 35.1303 15.8245 35.3675C16.4994 35.6046 17.0392 35.9773 17.4779 36.4515L15.8583 38.0776C15.6221 37.7727 15.3522 37.5356 14.981 37.4001C14.6099 37.2646 14.2387 37.163 13.8676 37.163C13.4627 37.163 13.0578 37.2307 12.7204 37.4001C12.383 37.5695 12.0793 37.7727 11.8094 38.0438C11.5732 38.3148 11.3707 38.6197 11.2358 38.9923C11.1008 39.365 11.0333 39.7715 11.0333 40.2119C11.0333 40.6523 11.1008 41.0588 11.2358 41.4315C11.3707 41.8041 11.5732 42.1429 11.8094 42.38C12.0455 42.651 12.3492 42.8543 12.6866 42.9898C13.024 43.1253 13.3952 43.2269 13.8338 43.2269C14.3062 43.2269 14.7111 43.1253 15.0822 42.9559C15.4534 42.7527 15.7233 42.5155 15.9258 42.2106L17.5791 43.769C17.1067 44.3788 16.5668 44.7853 15.9258 45.0563ZM38.1611 18.6322V8.67236H40.5567V18.6322H38.1611Z" fill="white"/>
</svg>
