<svg xmlns="http://www.w3.org/2000/svg" viewBox="0 0 155.9 67.3"><path fill="#fff" d="M0 .7h14.8c4.3 0 7.7 1.3 9.8 3.5a9.3 9.3 0 012.7 6.8c0 5.7-4 9-9.4 10l10.6 14.2h-4.8l-9.9-13.4H3.9v13.4H0zm14.5 17.6c5.2 0 8.8-2.7 8.8-7.1 0-4.2-3.2-6.8-8.8-6.8H3.9v14z"></path><path fill="#fff" d="M89.7 30.1l2.4-2.8c3.6 3.2 7 4.9 11.8 4.9s7.7-2.5 7.7-5.9c0-3.2-1.8-5-9-6.5s-11.5-4.3-11.5-10c0-5.4 4.7-9.4 11.3-9.4a18.1 18.1 0 0112.1 4.3l-2.3 3a15.2 15.2 0 00-9.9-3.8c-4.5 0-7.4 2.5-7.4 5.6 0 3.2 1.8 5.1 9.4 6.7s11.2 4.5 11.2 9.7c0 5.9-4.9 9.7-11.8 9.7a20 20 0 01-14-5.5z"></path><path fill="#fff" d="M130.8.7h24.9v3.6h-21V16h18.8v3.6h-18.8v12h21.2v3.6h-25.1z"></path><path fill="#fff" d="M0 47.5h8.5c5 0 8.2 2.6 8.2 7 0 4.7-3.6 7.1-8.5 7.1H5.5v5.7H0zm8.1 9.8c1.9 0 3.1-1 3.1-2.5 0-1.7-1.2-2.6-3.1-2.6H5.5v5.2z"></path><path fill="#fff" d="M21.1 47.5h9.4c3 0 5.1.8 6.4 2.2a6.2 6.2 0 011.7 4.6 6.4 6.4 0 01-4 6.1l4.7 6.9H33l-4-6h-2.4v6h-5.5zm9.1 9.5c1.9 0 2.9-.9 2.9-2.3 0-1.5-1.1-2.3-2.9-2.3h-3.6V57z"></path><path fill="#fff" d="M43.6 47.5h5.5v19.8h-5.5z"></path><path fill="#fff" d="M54.8 47.5h5.8l4.7 7.7 4.7-7.7h5.8v19.8h-5.4V55.9l-5.1 7.8h-.1l-5-7.7v11.3h-5.4z"></path><path fill="#fff" d="M88.3 47.4h5.2l8.4 19.9h-5.8l-1.5-3.6H87l-1.4 3.6h-5.7zm4.8 12.1l-2.2-5.6-2.3 5.6z"></path><path fill="#fff" d="M106.1 47.5h5.5v19.8h-5.5z"></path><path fill="#fff" d="M117.3 47.5h9.3c3.1 0 5.1.8 6.5 2.2a6.2 6.2 0 011.7 4.6 6.4 6.4 0 01-4 6.1l4.7 6.9h-6.4l-3.9-6h-2.4v6h-5.5zm9.1 9.5c1.8 0 2.9-.9 2.9-2.3 0-1.5-1.1-2.3-2.9-2.3h-3.6V57z"></path><path fill="#fff" d="M139.7 47.5h15.9v4.7h-10.5v3h9.5v4.3h-9.5v3.1h10.6v4.7h-16z"></path><circle cx="58.9" cy="17.9" r="17.9" fill="#ea4c6b"></circle></svg>
