<svg width="153" height="42" viewBox="0 0 153 42" fill="none" xmlns="http://www.w3.org/2000/svg">
<path d="M74.535 11.1869C73.9304 11.1869 73.369 11.1002 72.9372 10.8834C72.4622 10.6666 72.1167 10.4065 71.8144 10.0596C71.5121 9.7127 71.2962 9.32246 71.1666 8.88886C71.0371 8.45527 70.9507 7.97831 70.9507 7.50135V1.56104H72.2462V7.41463C72.2462 7.71815 72.2894 8.06503 72.3758 8.36855C72.4622 8.67206 72.5917 8.97558 72.7645 9.19238C72.9372 9.45254 73.1963 9.62598 73.4986 9.79942C73.8009 9.9295 74.1463 10.0162 74.6214 10.0162C75.0532 10.0162 75.3987 9.9295 75.701 9.79942C76.0032 9.66934 76.2623 9.45254 76.4351 9.19238C76.6078 8.93222 76.7374 8.67206 76.8237 8.36855C76.9101 8.06503 76.9533 7.71815 76.9533 7.41463V1.56104H78.2488V7.45799C78.2488 7.93495 78.1624 8.4119 78.0329 8.8455C77.9033 9.2791 77.6442 9.66934 77.3851 10.0162C77.0828 10.3631 76.6942 10.6233 76.2623 10.8401C75.701 11.0569 75.1827 11.1869 74.535 11.1869Z" fill="white"/>
<path d="M81.4444 4.63965C81.4444 4.81309 81.4876 4.98653 81.4876 5.15997C81.4876 5.37677 81.4876 5.50685 81.4876 5.63693H81.5308C81.6171 5.46349 81.7035 5.29005 81.8762 5.15997C82.0058 5.02989 82.1785 4.89981 82.3513 4.76973C82.524 4.63965 82.7399 4.55293 82.9127 4.50957C83.1286 4.46621 83.3445 4.42285 83.5604 4.42285C83.9491 4.42285 84.2945 4.50957 84.5968 4.63965C84.8991 4.76973 85.115 4.94317 85.3309 5.20333C85.5037 5.42013 85.6764 5.72365 85.7628 6.02717C85.8492 6.33069 85.8923 6.67757 85.8923 7.02445V10.9268H84.64V7.45805C84.64 7.19789 84.64 6.93773 84.5968 6.72093C84.5536 6.50413 84.4673 6.28733 84.3809 6.11389C84.2945 5.94045 84.1218 5.81037 83.9491 5.68029C83.7763 5.59357 83.5172 5.50685 83.2149 5.50685C82.7399 5.50685 82.3081 5.68029 82.0058 6.07053C81.7035 6.46077 81.5308 6.93773 81.5308 7.58813V10.9268H80.3216V5.98381C80.3216 5.81037 80.3216 5.59357 80.3216 5.33341C80.3216 5.07325 80.3216 4.85645 80.2784 4.63965H81.4444Z" fill="white"/>
<path d="M89.4335 2.38448C89.4335 2.60128 89.3471 2.81808 89.1744 2.94816C89.0016 3.07824 88.8289 3.16496 88.613 3.16496C88.3971 3.16496 88.1811 3.07824 88.0516 2.94816C87.8788 2.77472 87.8357 2.60128 87.8357 2.38448C87.8357 2.16768 87.922 1.95088 88.0516 1.8208C88.2243 1.64736 88.3971 1.604 88.613 1.604C88.8289 1.604 89.0448 1.69072 89.1744 1.8208C89.3903 1.95088 89.4335 2.16768 89.4335 2.38448ZM89.2607 10.9264H88.0084V4.6392H89.2607V10.9264Z" fill="white"/>
<path d="M94.3564 10.9268H93.0177L90.4698 4.63965H91.8517L93.6654 9.58268H93.7086L95.5655 4.63965H96.861L94.3564 10.9268Z" fill="white"/>
<path d="M103.943 7.71821V7.93501C103.943 8.02173 103.943 8.06509 103.943 8.15181H98.9773C98.9773 8.41197 99.0636 8.67213 99.15 8.88893C99.2796 9.10573 99.4091 9.32253 99.5818 9.49597C99.7546 9.66941 99.9705 9.79949 100.23 9.88621C100.489 9.97293 100.748 10.0163 101.007 10.0163C101.439 10.0163 101.784 9.92957 102.087 9.75613C102.389 9.58269 102.648 9.36589 102.821 9.06237L103.684 9.75613C103.339 10.1897 102.95 10.5366 102.518 10.7534C102.087 10.9702 101.568 11.0569 101.007 11.0569C100.532 11.0569 100.1 10.9702 99.6682 10.7968C99.2796 10.6233 98.9341 10.4065 98.6318 10.1464C98.3295 9.84285 98.1136 9.49597 97.9409 9.10573C97.7681 8.71549 97.6817 8.23853 97.6817 7.76157C97.6817 7.28461 97.7681 6.80765 97.9409 6.41741C98.1136 6.02717 98.3295 5.63693 98.6318 5.37677C98.9341 5.07325 99.2796 4.85645 99.6682 4.68301C100.057 4.50957 100.489 4.42285 100.964 4.42285C101.439 4.42285 101.827 4.50957 102.216 4.63965C102.605 4.76973 102.907 4.98653 103.166 5.29005C103.425 5.59357 103.641 5.89709 103.771 6.33069C103.857 6.76429 103.943 7.24125 103.943 7.71821ZM102.648 7.24125C102.648 6.98109 102.605 6.76429 102.518 6.54749C102.432 6.33069 102.346 6.15725 102.173 5.98381C102.043 5.81037 101.827 5.68029 101.611 5.59357C101.396 5.50685 101.136 5.46349 100.834 5.46349C100.575 5.46349 100.316 5.50685 100.1 5.59357C99.8841 5.68029 99.6682 5.81037 99.4955 5.98381C99.3227 6.15725 99.1932 6.33069 99.0636 6.54749C98.9341 6.76429 98.8909 6.98109 98.8909 7.24125H102.648Z" fill="white"/>
<path d="M105.627 5.33351C105.627 5.07335 105.627 4.85655 105.584 4.63975H106.75C106.75 4.81319 106.793 4.98663 106.793 5.20343C106.793 5.42023 106.793 5.59367 106.793 5.72375H106.837C107.009 5.33351 107.268 5.07335 107.614 4.81319C107.959 4.59639 108.348 4.46631 108.737 4.46631C108.909 4.46631 109.082 4.46631 109.212 4.50967L109.169 5.68039C108.996 5.63703 108.823 5.59367 108.607 5.59367C108.305 5.59367 108.046 5.63703 107.83 5.76711C107.614 5.89719 107.441 6.02727 107.268 6.20071C107.139 6.37415 107.009 6.59095 106.966 6.8511C106.88 7.11126 106.88 7.32806 106.88 7.63158V10.9269H105.627V5.98391C105.627 5.81047 105.627 5.59367 105.627 5.33351Z" fill="white"/>
<path d="M113.789 6.24392C113.66 6.02712 113.444 5.81032 113.185 5.68024C112.926 5.55016 112.623 5.46344 112.321 5.46344C112.191 5.46344 112.019 5.46344 111.889 5.5068C111.76 5.55016 111.63 5.59352 111.5 5.63688C111.371 5.7236 111.285 5.76696 111.241 5.89704C111.155 5.98376 111.155 6.11384 111.155 6.28728C111.155 6.54744 111.285 6.76424 111.5 6.89432C111.716 7.0244 112.105 7.15448 112.58 7.2412C112.882 7.32792 113.141 7.41464 113.401 7.50136C113.66 7.58808 113.876 7.71816 114.048 7.84824C114.221 7.97832 114.394 8.15176 114.48 8.36856C114.566 8.58536 114.653 8.80216 114.653 9.06231C114.653 9.45255 114.566 9.75607 114.437 10.0162C114.307 10.2764 114.091 10.4932 113.876 10.6666C113.66 10.8401 113.357 10.9268 113.098 11.0135C112.796 11.1002 112.494 11.1002 112.191 11.1002C111.716 11.1002 111.241 11.0135 110.809 10.8401C110.334 10.6666 109.989 10.3631 109.687 9.97287L110.55 9.23575C110.723 9.49591 110.939 9.71271 111.241 9.84279C111.544 10.0162 111.846 10.103 112.235 10.103C112.407 10.103 112.537 10.103 112.71 10.0596C112.839 10.0162 112.969 9.97287 113.098 9.88615C113.228 9.79943 113.314 9.71271 113.401 9.62599C113.487 9.49591 113.487 9.36583 113.487 9.19239C113.487 8.88887 113.357 8.67207 113.055 8.542C112.796 8.41192 112.364 8.28184 111.846 8.15176C111.63 8.1084 111.414 8.02168 111.198 7.97832C110.982 7.8916 110.766 7.80488 110.594 7.6748C110.421 7.54472 110.291 7.37128 110.162 7.19784C110.032 6.98104 109.989 6.76424 109.989 6.46072C109.989 6.11384 110.075 5.85368 110.205 5.59352C110.334 5.33336 110.507 5.15992 110.723 4.98648C110.939 4.81304 111.198 4.72632 111.457 4.6396C111.76 4.55288 112.019 4.50952 112.321 4.50952C112.753 4.50952 113.185 4.59624 113.616 4.76968C114.048 4.94312 114.351 5.20328 114.566 5.55016L113.789 6.24392Z" fill="white"/>
<path d="M117.719 2.38448C117.719 2.60128 117.632 2.81808 117.459 2.94816C117.287 3.07824 117.114 3.16496 116.855 3.16496C116.639 3.16496 116.423 3.07824 116.294 2.94816C116.121 2.77472 116.078 2.60128 116.078 2.38448C116.078 2.16768 116.164 1.95088 116.294 1.8208C116.466 1.64736 116.639 1.604 116.855 1.604C117.071 1.604 117.287 1.69072 117.459 1.8208C117.632 1.95088 117.719 2.16768 117.719 2.38448ZM117.546 10.9264H116.294V4.6392H117.546V10.9264Z" fill="white"/>
<path d="M122.771 5.68021H121.087V8.93221C121.087 9.32245 121.174 9.58261 121.303 9.75605C121.433 9.92949 121.649 10.0162 121.994 10.0162C122.124 10.0162 122.253 10.0162 122.383 9.97285C122.512 9.92949 122.642 9.92949 122.728 9.84277L122.771 10.8834C122.642 10.9268 122.469 10.9701 122.296 11.0135C122.124 11.0568 121.908 11.0568 121.735 11.0568C121.13 11.0568 120.699 10.8834 120.396 10.5799C120.094 10.233 119.921 9.75605 119.921 9.10565V5.68021H118.712V4.63957H119.921V2.86182H121.13V4.68293H122.815V5.68021H122.771Z" fill="white"/>
<path d="M129.896 7.71815V7.93495C129.896 8.02167 129.896 8.06503 129.896 8.15175H124.93C124.93 8.41191 125.017 8.67207 125.103 8.88887C125.233 9.10567 125.362 9.32246 125.535 9.4959C125.708 9.66934 125.924 9.79943 126.183 9.88614C126.442 9.97287 126.701 10.0162 126.96 10.0162C127.392 10.0162 127.737 9.92951 128.04 9.75607C128.342 9.58263 128.601 9.36582 128.774 9.0623L129.637 9.75607C129.292 10.1897 128.903 10.5365 128.471 10.7533C127.996 10.9701 127.521 11.0569 126.96 11.0569C126.485 11.0569 126.053 10.9701 125.621 10.7967C125.233 10.6233 124.887 10.4065 124.585 10.1463C124.283 9.84278 124.067 9.49591 123.894 9.10567C123.721 8.71543 123.635 8.23847 123.635 7.76151C123.635 7.28455 123.721 6.80759 123.894 6.41735C124.067 6.02711 124.283 5.63687 124.585 5.37671C124.887 5.07319 125.233 4.85639 125.621 4.68295C126.01 4.50951 126.442 4.42279 126.917 4.42279C127.392 4.42279 127.78 4.50951 128.169 4.63959C128.558 4.76967 128.86 4.98647 129.119 5.28999C129.378 5.59351 129.594 5.89703 129.724 6.33063C129.81 6.76423 129.896 7.24119 129.896 7.71815ZM128.644 7.24119C128.644 6.98103 128.601 6.76423 128.515 6.54743C128.428 6.33063 128.342 6.15719 128.169 5.98375C128.04 5.81031 127.824 5.68023 127.608 5.59351C127.392 5.50679 127.133 5.46343 126.83 5.46343C126.571 5.46343 126.312 5.50679 126.096 5.59351C125.88 5.68023 125.664 5.81031 125.492 5.98375C125.319 6.15719 125.189 6.33063 125.06 6.54743C124.93 6.76423 124.887 6.98103 124.887 7.24119H128.644ZM127.219 3.46887H126.183L127.521 1.56104H129.033L127.219 3.46887Z" fill="white"/>
<path d="M74.5353 24.8021H70.6919V15.1328H74.5353C74.8808 15.1328 75.2694 15.1762 75.6581 15.2629C76.0467 15.3496 76.3922 15.4797 76.7377 15.6531C77.0399 15.8266 77.3422 16.0867 77.515 16.4336C77.7309 16.7805 77.8173 17.1707 77.8173 17.691C77.8173 18.2547 77.6445 18.6883 77.3854 19.0786C77.1695 19.3387 76.8672 19.5555 76.5649 19.729C76.7377 19.7723 76.8672 19.8157 76.9968 19.9024C77.2559 20.0325 77.4718 20.2059 77.6445 20.3794C77.8173 20.5528 77.99 20.813 78.0764 21.0731C78.1627 21.3333 78.2491 21.6368 78.2491 21.9403C78.2491 22.4606 78.1195 22.9376 77.9468 23.2845C77.7309 23.6314 77.4718 23.9349 77.0831 24.1517C76.7377 24.3685 76.349 24.5419 75.9172 24.6286C75.4421 24.7154 75.0103 24.8021 74.5353 24.8021ZM73.1102 22.7208H74.2762C74.4489 22.7208 74.6217 22.7208 74.7944 22.6774C74.9671 22.6341 75.1399 22.5907 75.2694 22.504C75.399 22.4173 75.5285 22.3306 75.6149 22.2005C75.7013 22.0704 75.7444 21.897 75.7444 21.7235C75.7444 21.3766 75.6149 21.1598 75.3558 21.0298C75.0967 20.8997 74.708 20.813 74.233 20.813H73.1102V22.7208ZM73.1102 18.9051H74.1898C74.5785 18.9051 74.8808 18.8184 75.0967 18.6883C75.3126 18.5582 75.399 18.3414 75.399 18.0379C75.399 17.7778 75.3126 17.561 75.0967 17.4309C74.8808 17.3008 74.5353 17.2141 74.1035 17.2141H73.1102V18.9051Z" fill="white"/>
<path d="M84.2515 25.0189C83.5173 25.0189 82.8264 24.8888 82.1786 24.672C81.5309 24.4118 80.9695 24.065 80.5376 23.6314C80.0626 23.1978 79.7172 22.6341 79.458 22.027C79.1989 21.42 79.0694 20.6829 79.0694 19.9458C79.0694 19.1653 79.1989 18.4715 79.458 17.8645C79.7172 17.2575 80.1058 16.6938 80.5376 16.2602C81.0127 15.8266 81.5741 15.4797 82.1786 15.2629C82.8264 15.0461 83.5173 14.916 84.2515 14.916C84.9856 14.916 85.6765 15.0461 86.3243 15.2629C86.972 15.4797 87.5334 15.8266 87.9653 16.2602C88.4403 16.6938 88.7857 17.2141 89.0448 17.8645C89.304 18.4715 89.4335 19.1653 89.4335 19.9458C89.4335 20.6829 89.304 21.42 89.0448 22.027C88.7857 22.6341 88.3971 23.1978 87.9653 23.6314C87.4902 24.065 86.9288 24.4118 86.3243 24.672C85.6765 24.9322 84.9856 25.0189 84.2515 25.0189ZM84.2515 17.1707C83.8628 17.1707 83.5173 17.2575 83.215 17.3875C82.9128 17.5176 82.6537 17.7344 82.3945 17.9512C82.1786 18.168 82.0059 18.4715 81.8763 18.8184C81.7468 19.1653 81.7036 19.5122 81.7036 19.9024C81.7036 20.2926 81.7468 20.6829 81.8763 21.0298C82.0059 21.3766 82.1786 21.6802 82.3945 21.897C82.6105 22.1571 82.8696 22.3306 83.1719 22.4606C83.7764 22.7208 84.6401 22.7208 85.2447 22.4606C85.547 22.3306 85.8061 22.1138 86.0652 21.897C86.2811 21.6368 86.4538 21.3766 86.5834 21.0298C86.7129 20.6829 86.7561 20.2926 86.7561 19.9024C86.7561 19.5122 86.7129 19.1219 86.5834 18.8184C86.4538 18.4715 86.2811 18.2114 86.0652 17.9512C85.8493 17.7344 85.5901 17.5176 85.2447 17.3875C84.9856 17.2575 84.5969 17.1707 84.2515 17.1707Z" fill="white"/>
<path d="M98.6746 24.8021H95.7381L93.7084 21.0731H93.147V24.8021H90.6856V15.1328H94.3562C94.8312 15.1328 95.2631 15.1762 95.6949 15.2629C96.1267 15.3496 96.5154 15.5231 96.904 15.7399C97.2495 15.9567 97.5518 16.2602 97.7677 16.6504C97.9836 17.0406 98.07 17.5176 98.07 18.0813C98.07 18.7317 97.8973 19.2954 97.5086 19.7723C97.1631 20.2059 96.7313 20.5094 96.1699 20.6829L98.6746 24.8021ZM93.147 19.1653H94.0971C94.2698 19.1653 94.4426 19.1653 94.6585 19.1219C94.8312 19.0786 95.0039 19.0352 95.1335 18.9485C95.2631 18.8618 95.3926 18.775 95.479 18.645C95.5653 18.5149 95.6085 18.3414 95.6085 18.1246C95.6085 17.9078 95.5653 17.7778 95.479 17.6477C95.3926 17.5176 95.3062 17.4309 95.1767 17.3875C95.0471 17.3008 94.8744 17.2574 94.7448 17.2574C94.5721 17.2141 94.3994 17.2141 94.2266 17.2141H93.147V19.1653Z" fill="white"/>
<path d="M103.08 24.8021H99.4522V15.1328H102.95C103.598 15.1328 104.289 15.2195 104.937 15.3496C105.584 15.5231 106.189 15.7832 106.707 16.1301C107.225 16.477 107.657 16.9973 107.959 17.6043C108.262 18.2114 108.434 18.9918 108.434 19.9024C108.434 20.7262 108.262 21.4634 107.959 22.0704C107.657 22.6774 107.225 23.1978 106.707 23.588C106.189 23.9782 105.628 24.2818 104.98 24.4552C104.375 24.672 103.727 24.8021 103.08 24.8021ZM101.914 22.5907H102.864C103.252 22.5907 103.641 22.5474 103.987 22.4606C104.332 22.3739 104.677 22.2438 104.937 22.027C105.196 21.8102 105.412 21.5501 105.584 21.2032C105.757 20.8563 105.843 20.4661 105.843 19.9458C105.843 19.4254 105.757 18.9918 105.584 18.6883C105.412 18.3414 105.196 18.0813 104.937 17.9078C104.677 17.691 104.332 17.561 103.987 17.4742C103.641 17.3875 103.252 17.3442 102.864 17.3442H101.914V22.5907Z" fill="white"/>
<path d="M116.423 24.8021H109.687V15.1328H116.207V17.3008H112.105V18.8184H115.992V20.8997H112.105V22.5907H116.423V24.8021Z" fill="white"/>
<path d="M126.83 24.8022H124.067L123.333 22.9811H119.878L119.187 24.8022H116.466L120.482 15.1763H122.858L122.901 15.263L126.83 24.8022ZM120.612 20.8998H122.598L121.605 18.1681L120.612 20.8998Z" fill="white"/>
<path d="M131.106 25.0189C130.458 25.0189 129.897 24.9322 129.422 24.7154C128.904 24.5419 128.472 24.2384 128.126 23.9349C127.781 23.588 127.479 23.1544 127.306 22.6774C127.133 22.2005 127.003 21.6802 127.003 21.0731V15.1328H129.508V20.8997C129.508 21.1598 129.551 21.3766 129.595 21.5934C129.638 21.8102 129.767 21.9837 129.897 22.1571C130.026 22.3306 130.199 22.4606 130.372 22.5474C130.588 22.6341 130.847 22.6774 131.149 22.6774C131.451 22.6774 131.711 22.6341 131.926 22.5474C132.142 22.4606 132.315 22.3306 132.445 22.1571C132.574 21.9837 132.661 21.8102 132.747 21.5934C132.79 21.3766 132.833 21.1165 132.833 20.8997V15.1328H135.338V21.1165C135.338 21.6802 135.252 22.2438 135.036 22.7208C134.82 23.1978 134.561 23.6314 134.172 23.9782C133.827 24.3251 133.352 24.5853 132.876 24.7587C132.272 24.9322 131.711 25.0189 131.106 25.0189Z" fill="white"/>
<path d="M145.615 24.8021H142.506L140.52 21.5934L138.619 24.8021H135.64L139.008 19.6856L135.899 15.1328H138.922L140.606 17.9512L142.247 15.1328H145.183L142.117 19.6856L145.615 24.8021Z" fill="white"/>
<path d="M81.6174 38.5038H79.156L79.1991 32.3467L76.9536 38.5038H75.183L73.0239 32.3467L73.067 38.5038H70.6919V28.8779H74.1034L76.1763 34.7315L78.1627 28.8779H81.6174V38.5038Z" fill="white"/>
<path d="M88.052 38.764C87.3179 38.764 86.6269 38.6339 85.9792 38.4171C85.3314 38.157 84.77 37.8101 84.3382 37.3765C83.8632 36.9429 83.5177 36.3792 83.2586 35.7722C82.9995 35.1651 82.8699 34.428 82.8699 33.6909C82.8699 32.9104 82.9995 32.2167 83.2586 31.6096C83.5177 31.0026 83.9063 30.4389 84.3382 30.0053C84.8132 29.5717 85.3746 29.2248 85.9792 29.008C86.6269 28.7912 87.3179 28.6611 88.052 28.6611C88.7861 28.6611 89.4771 28.7912 90.1248 29.008C90.7726 29.2248 91.334 29.5717 91.7658 30.0053C92.2408 30.4389 92.5863 30.9592 92.8454 31.6096C93.1045 32.2167 93.234 32.9104 93.234 33.6909C93.234 34.428 93.1045 35.1651 92.8454 35.7722C92.5863 36.3792 92.1976 36.9429 91.7658 37.3765C91.2908 37.8101 90.7294 38.157 90.1248 38.4171C89.5202 38.6339 88.8293 38.764 88.052 38.764ZM88.052 30.9158C87.6633 30.9158 87.3179 31.0026 87.0156 31.1326C86.7133 31.2627 86.4542 31.4795 86.1951 31.6963C85.9792 31.9565 85.8064 32.2166 85.6769 32.5635C85.5473 32.9104 85.5041 33.2573 85.5041 33.6475C85.5041 34.0378 85.5473 34.428 85.6769 34.7749C85.8064 35.1218 85.9792 35.4253 86.1951 35.6421C86.411 35.9022 86.6701 36.0757 86.9724 36.2058C87.577 36.4659 88.4406 36.4659 89.0452 36.2058C89.3475 36.0757 89.6066 35.8589 89.8657 35.6421C90.0816 35.3819 90.2544 35.1218 90.3839 34.7749C90.5135 34.428 90.5566 34.0378 90.5566 33.6475C90.5566 33.2573 90.5135 32.9104 90.3839 32.5635C90.2544 32.2166 90.0816 31.9565 89.8657 31.6963C89.6498 31.4795 89.3907 31.2627 89.0452 31.1326C88.7861 31.0026 88.4406 30.9158 88.052 30.9158Z" fill="white"/>
<path d="M103.295 38.5038H100.532L96.9043 32.6502L96.9907 38.5038H94.5292V28.8779H97.2929L100.877 34.7749L100.834 28.8779H103.295V38.5038Z" fill="white"/>
<path d="M109.212 38.5038H106.707V31.0893H104.073V28.8779H111.846V31.0893H109.212V38.5038Z" fill="white"/>
<path d="M121.001 38.5038H118.237L117.503 36.6827H114.048L113.358 38.5038H110.637L114.653 28.8779H117.028L117.071 28.9646L121.001 38.5038ZM114.783 34.6014H116.769L115.776 31.8698L114.783 34.6014Z" fill="white"/>
<path d="M123.981 28.8779H121.476V38.5038H123.981V28.8779Z" fill="white"/>
<path d="M130.501 38.764C129.724 38.764 129.033 38.6339 128.385 38.4171C127.737 38.157 127.176 37.8101 126.701 37.3765C126.226 36.9429 125.88 36.3792 125.621 35.7722C125.362 35.1651 125.233 34.4714 125.233 33.6909C125.233 32.9104 125.362 32.2167 125.621 31.6096C125.88 31.0026 126.269 30.4389 126.744 30.0053C127.219 29.5717 127.78 29.2248 128.385 29.008C128.99 28.7912 129.681 28.6611 130.415 28.6611C131.149 28.6611 131.883 28.7912 132.531 29.008C133.178 29.2248 133.697 29.5717 134.128 29.9619L134.215 30.0486L132.617 31.8698L132.531 31.783C132.315 31.5229 132.056 31.3495 131.71 31.176C131.365 31.0026 130.976 30.9592 130.544 30.9592C130.156 30.9592 129.81 31.0459 129.508 31.176C129.206 31.3061 128.903 31.5229 128.687 31.7397C128.471 31.9998 128.256 32.3034 128.126 32.6069C127.996 32.9538 127.91 33.344 127.91 33.7342C127.91 34.1678 127.953 34.5581 128.083 34.905C128.212 35.2518 128.385 35.5554 128.601 35.8155C128.817 36.0757 129.119 36.2491 129.465 36.3792C129.81 36.5093 130.199 36.596 130.631 36.596C130.89 36.596 131.149 36.596 131.365 36.5526C131.581 36.5093 131.753 36.4659 131.926 36.3792V34.8616H130.156V32.7803H134.258V37.9402L134.172 37.9835C133.697 38.2437 133.178 38.4171 132.531 38.5906C131.883 38.6773 131.192 38.764 130.501 38.764Z" fill="white"/>
<path d="M144.58 38.5038H141.816L138.188 32.6502L138.232 38.5038H135.813V28.8779H138.577L142.161 34.7749L142.118 28.8779H144.58V38.5038Z" fill="white"/>
<path d="M153 38.5038H146.263V28.8779H152.784V31.0459H148.682V32.5635H152.568V34.6448H148.682V36.3358H153V38.5038Z" fill="white"/>
<path d="M0 41.8423C0 41.8423 3.10923 16.8237 24.8739 0C24.8739 0 23.4488 22.2003 32.3015 29.398C26.9467 36.2489 23.1897 41.4087 23.1897 41.4087C23.1897 41.4087 16.8849 36.4223 14.2075 24.7152C10.4073 30.482 0 41.8423 0 41.8423Z" fill="white"/>
<path d="M47.2865 0.650391C54.3686 0.650391 58.2552 8.23838 55.1891 16.867C52.5981 24.1081 52.3822 30.7855 57.8665 33.4739C63.3941 36.1622 67.5829 30.7855 67.5829 30.7855C67.5829 30.7855 65.1646 39.7177 55.1028 39.7177C45.1273 39.7177 32.129 28.6609 36.1019 11.0568C38.002 3.46879 42.6227 0.650391 47.2865 0.650391Z" fill="white"/>
</svg>
