<svg width="148" height="38" viewBox="0 0 148 38" fill="none" xmlns="http://www.w3.org/2000/svg">
<path fill-rule="evenodd" clip-rule="evenodd" d="M4.82797 1.54723C3.01607 1.54723 1.54723 3.01607 1.54723 4.82798V32.7633C1.54723 34.5752 3.01607 36.044 4.82797 36.044H143.172C144.984 36.044 146.453 34.5752 146.453 32.7633V4.82798C146.453 3.01607 144.984 1.54723 143.172 1.54723H4.82797ZM0 4.82798C0 2.16156 2.16156 0 4.82797 0H143.172C145.838 0 148 2.16156 148 4.82798V32.7633C148 35.4297 145.838 37.5913 143.172 37.5913H4.82797C2.16156 37.5913 0 35.4297 0 32.7633V4.82798Z" fill="white"/>
<path d="M11.9705 24.2724V14.1428C11.9705 12.6114 12.4094 11.4589 13.2588 10.6126C13.6882 10.1889 14.1972 9.85442 14.7565 9.62842C15.3158 9.40243 15.9143 9.28942 16.5175 9.29592H24.8125V12.1378H16.8869C15.5449 12.1378 14.806 12.8514 14.806 14.2186V24.0482C14.8117 24.1864 14.8297 24.3238 14.8597 24.4587C14.9378 24.9377 15.1855 25.3725 15.5577 25.6839C15.9299 25.9952 16.4017 26.1622 16.8869 26.1544H24.743V28.9962H16.2838C15.3988 28.953 14.5444 28.6583 13.8209 28.1468C12.8736 27.5153 12.261 26.4764 12.0147 25.0808C11.9863 24.8123 11.9715 24.5425 11.9705 24.2724Z" fill="white"/>
<path d="M26.8492 29.0088V9.2959H29.3153V29.0088H26.8492Z" fill="white"/>
<path d="M31.9424 25.0461V23.2652C31.9424 20.2528 33.4202 18.6677 35.7315 18.6677H41.8099V17.7204C41.811 17.526 41.7538 17.3357 41.6457 17.1742C41.5683 17.0394 41.4565 16.9278 41.3216 16.8506C41.1867 16.7735 41.0338 16.7337 40.8784 16.7352L31.955 16.7068V14.2439H40.7048C42.6498 14.2439 43.7708 15.0365 44.2097 16.9815C44.2416 17.1991 44.2595 17.4185 44.2634 17.6383V25.2481C44.2734 25.9159 44.0939 26.5729 43.7455 27.1427C42.9498 28.4279 41.911 29.0373 40.6763 29.0373H35.7473C35.0198 29.0084 34.316 28.7705 33.7201 28.3521C33.1534 28.0124 32.689 27.5258 32.376 26.9439C32.0631 26.3619 31.9133 25.7062 31.9424 25.0461ZM34.4338 25.3618C34.7053 26.347 35.0653 26.568 36.4325 26.568H39.7575C41.1279 26.568 41.4847 26.347 41.7562 25.3618C41.7796 25.2819 41.7892 25.1986 41.7847 25.1155V22.7347C41.7893 22.6422 41.7797 22.5496 41.7562 22.46C41.5099 21.5569 41.1247 21.2569 40.0606 21.1464H36.1578C35.0905 21.2569 34.68 21.5569 34.4338 22.46C34.4103 22.5496 34.4007 22.6422 34.4053 22.7347V25.1155C34.4032 25.1913 34.4127 25.2669 34.4338 25.3397V25.3618Z" fill="white"/>
<path d="M46.2621 29.009V26.5461H53.8151C53.9289 26.5427 54.0408 26.5167 54.1444 26.4695C54.2479 26.4223 54.341 26.355 54.4182 26.2714C54.6929 26.0535 54.8287 25.6967 54.8287 25.0652V23.9442C54.8287 22.959 54.4182 22.5486 53.3794 22.5486H50.0386C48.3146 22.5486 47.3547 22.0275 46.7263 20.9698C46.4675 20.5195 46.3263 20.0112 46.3158 19.492V17.5974C46.3158 15.4882 47.5473 14.2283 49.5997 14.2283H57.3201V16.6912H49.8208C49.6281 16.7065 49.4408 16.7624 49.2713 16.8554C49.1062 16.9444 48.9713 17.0805 48.8836 17.2463C48.7959 17.4122 48.7594 17.6003 48.7788 17.7869V18.8542C48.786 19.022 48.8266 19.1868 48.8983 19.3388C48.97 19.4908 49.0713 19.6269 49.1963 19.7392C49.3213 19.8516 49.4674 19.9378 49.6262 19.993C49.7849 20.0481 49.953 20.071 50.1207 20.0604H53.7899C54.0191 20.0658 54.2478 20.0837 54.4751 20.114C56.1991 20.4993 57.2948 21.8381 57.2948 23.4548V25.7819C57.2845 26.385 57.1039 26.9728 56.7738 27.4776C56.5784 27.8179 56.3176 28.1162 56.0065 28.3554C55.4565 28.7368 54.8142 28.9637 54.1467 29.0122L46.2621 29.009Z" fill="white"/>
<path d="M58.9619 29.009V26.5461H66.5181C66.6317 26.5423 66.7436 26.5161 66.8471 26.469C66.9506 26.4219 67.0437 26.3547 67.1212 26.2714C67.3927 26.0535 67.5316 25.6967 67.5316 25.0652V23.9442C67.5316 22.959 67.1212 22.5486 66.0791 22.5486H62.7384C61.0144 22.5486 60.0576 22.0275 59.4261 20.9698C59.1687 20.5189 59.0276 20.011 59.0156 19.492V17.5974C59.0156 15.4882 60.2502 14.2283 62.3027 14.2283H70.023V16.6912H62.5205C62.3289 16.7066 62.1427 16.7626 61.9743 16.8554C61.8097 16.9442 61.6751 17.0798 61.5874 17.245C61.4998 17.4102 61.463 17.5976 61.4817 17.7837V18.851C61.4889 19.0189 61.5296 19.1836 61.6013 19.3356C61.673 19.4876 61.7743 19.6237 61.8992 19.7361C62.0242 19.8484 62.1703 19.9347 62.3291 19.9898C62.4878 20.045 62.656 20.0679 62.8237 20.0572H66.4896C66.7189 20.0624 66.9476 20.0803 67.1748 20.1109C68.8989 20.4961 69.9946 21.8349 69.9946 23.4516V25.7788C69.9842 26.3818 69.8036 26.9696 69.4736 27.4744C69.2802 27.8153 69.0204 28.1138 68.7094 28.3522C68.1583 28.7338 67.515 28.9606 66.8464 29.009H58.9619Z" fill="white"/>
<path d="M79.2748 24.2724V14.1428C79.2748 12.6114 79.7105 11.4589 80.5599 10.6126C80.9893 10.1889 81.4983 9.85442 82.0576 9.62842C82.6169 9.40243 83.2154 9.28942 83.8186 9.29592H92.1136V12.1378H84.2006C82.8587 12.1378 82.1198 12.8514 82.1198 14.2186V24.0482C82.125 24.1866 82.144 24.3241 82.1766 24.4587C82.2533 24.9377 82.5003 25.3729 82.8721 25.6844C83.2439 25.9959 83.7157 26.1627 84.2006 26.1544H92.0568V28.9962H83.5975C82.7125 28.953 81.8582 28.6583 81.1346 28.1468C80.1873 27.5153 79.5748 26.4764 79.3285 25.0808C79.2969 24.8124 79.2789 24.5426 79.2748 24.2724Z" fill="white"/>
<path d="M94.1629 25.362V17.6764C94.1629 15.6492 95.3154 14.4998 97.4499 14.2535C97.6678 14.2535 97.8888 14.2251 98.1067 14.2251H102.622C102.824 14.2292 103.026 14.2471 103.225 14.2788C105.417 14.5945 106.566 15.7597 106.566 17.6764V25.362C106.566 26.786 105.991 27.7428 104.539 28.5638C103.951 28.8793 103.289 29.0309 102.622 29.0027H98.0246C94.4092 29.009 94.0681 25.3935 94.1629 25.362ZM98.4067 26.5397H102.376C103.471 26.5397 104.103 25.9366 104.103 24.6768V18.4689C104.103 17.2627 103.471 16.688 102.376 16.688H98.4067C97.2573 16.688 96.629 17.2911 96.629 18.4689V24.5726C96.629 25.9145 97.2573 26.5461 98.4067 26.5461V26.5397Z" fill="white"/>
<path d="M109.193 25.1471V17.9477C109.197 17.7185 109.215 17.4896 109.247 17.2625C109.604 15.2101 110.826 14.2249 113.191 14.2249H118.937V9.2959H121.404V24.8471C121.404 26.1322 121.157 26.7922 120.362 27.6889C119.512 28.6173 118.72 29.0025 117.706 29.0025H112.862C112.359 28.983 111.865 28.8617 111.41 28.6457C109.878 27.9668 109.193 26.7638 109.193 25.1471ZM111.684 25.1471C111.82 26.0249 112.12 26.3817 112.723 26.5175C112.813 26.5396 112.906 26.5492 112.998 26.5459H117.324C117.672 26.5455 118.009 26.4187 118.271 26.1891C118.491 26.032 118.667 25.8213 118.782 25.5769C118.897 25.3326 118.947 25.0628 118.928 24.7934V18.2761C118.928 17.2373 118.574 16.7984 117.586 16.7163C117.497 16.694 117.406 16.6845 117.314 16.6878H113.273C112.12 16.6878 111.656 17.1552 111.656 18.333V24.9829C111.651 25.0392 111.66 25.0959 111.684 25.1471Z" fill="white"/>
<path d="M124.028 25.122V18.491C124.028 15.6712 125.48 14.2188 128.6 14.2188H132.275C134.684 14.2188 136.162 15.6144 136.162 18.0079V19.7572L126.5 24.2473V24.9041C126.718 26.2461 127.018 26.5492 128.196 26.5492H136.326V29.0121H128.053C126.601 29.0121 125.644 28.6016 124.852 27.588C124.301 26.8856 124.01 26.0144 124.028 25.122ZM126.494 21.5349L133.693 18.1942V17.9763C133.693 17.029 133.308 16.688 132.187 16.688H128.17C126.992 16.688 126.5 17.2374 126.5 18.551L126.494 21.5349Z" fill="white"/>
<path d="M75.852 0.757812L72.2492 11.3074C72.1387 11.7084 72.2839 11.9073 72.6849 11.9073H74.0017C74.1366 11.9128 74.2694 11.8724 74.3783 11.7927C74.4873 11.713 74.566 11.5986 74.6016 11.4684L78.877 0.757812H75.852Z" fill="white"/>
</svg>
